# This file uses centimeters as units for non-parametric coordinates.

g default
v -0.127470 4.144113 0.326699
v -0.048297 3.558230 0.051296
v -0.030875 4.205391 0.224107
v 0.048298 3.619508 -0.051296
v -0.106319 4.392216 0.374819
v 0.002063 3.590178 -0.002192
v -0.077675 3.865311 0.180460
v -0.038953 3.889875 0.139334
v -0.003404 3.912427 0.101578
v -0.000000 4.501952 -0.146517
v -0.000000 3.627831 0.125298
v 0.000000 4.424028 -0.397113
v -0.000000 3.549907 -0.125298
v 0.000000 4.783822 -0.377451
v -0.000000 3.587204 -0.005353
v -0.000000 4.066417 -0.042842
v -0.000000 4.035180 -0.143298
v 0.000000 4.006502 -0.235522
v -0.143744 4.603399 -0.134962
v -0.041667 3.570864 -0.066433
v -0.220918 4.604589 -0.002096
v -0.118841 3.572053 0.066433
v -0.221640 4.984962 -0.090974
v -0.081903 3.571484 0.002838
v -0.102854 4.099708 -0.086170
v -0.133790 4.100185 -0.032908
v -0.162192 4.100623 0.015990
v -0.170084 4.480112 0.146517
v -0.084088 3.610232 -0.125298
v -0.162418 4.402566 0.397113
v -0.076421 3.532685 0.125298
v -0.197815 4.760614 0.377451
v -0.080091 3.569802 0.005353
v -0.127236 4.046690 0.042842
v -0.124163 4.015605 0.143298
v -0.121342 3.987066 0.235522
v -0.008029 4.136550 -0.326699
v -0.029177 3.545720 -0.051296
v -0.110183 4.188028 -0.224107
v -0.131332 3.597198 0.051296
v -0.053486 4.381368 -0.374819
v -0.082437 3.572558 0.002192
v -0.030153 3.854201 -0.180460
v -0.071103 3.874837 -0.139334
v -0.108698 3.893782 -0.101578
v 0.041336 -0.008039 -0.013431
v 0.035162 -0.008039 -0.025547
v 0.025547 -0.008039 -0.035163
v 0.013431 -0.008039 -0.041336
v -0.000000 -0.008039 -0.043463
v -0.013431 -0.008039 -0.041336
v -0.025547 -0.008039 -0.035163
v -0.035163 -0.008039 -0.025547
v -0.041336 -0.008039 -0.013431
v -0.043463 -0.008039 -0.000000
v -0.041336 -0.008039 0.013431
v -0.035163 -0.008039 0.025547
v -0.025547 -0.008039 0.035162
v -0.013431 -0.008039 0.041336
v -0.000000 -0.008039 0.043463
v 0.013431 -0.008039 0.041336
v 0.025547 -0.008039 0.035162
v 0.035162 -0.008039 0.025547
v 0.041336 -0.008039 0.013431
v 0.043463 -0.008039 -0.000000
v 0.440538 2.198861 -0.143139
v 0.374744 2.198861 -0.272267
v 0.272267 2.198861 -0.374744
v 0.143139 2.198861 -0.440538
v -0.000000 2.198861 -0.463209
v -0.143139 2.198861 -0.440538
v -0.272267 2.198861 -0.374744
v -0.374744 2.198861 -0.272267
v -0.440538 2.198861 -0.143139
v -0.463209 2.198861 -0.000000
v -0.440538 2.198861 0.143139
v -0.374744 2.198861 0.272267
v -0.272267 2.198861 0.374744
v -0.143139 2.198861 0.440538
v -0.000000 2.198861 0.463209
v 0.143139 2.198861 0.440538
v 0.272267 2.198861 0.374744
v 0.374744 2.198861 0.272267
v 0.440538 2.198861 0.143139
v 0.463209 2.198861 -0.000000
v -0.000000 -0.008039 -0.000000
v 0.315015 0.885848 -0.102355
v 0.267968 0.885848 -0.194690
v 0.194690 0.885848 -0.267968
v 0.102355 0.885848 -0.315015
v -0.000000 0.885848 -0.331227
v -0.102355 0.885848 -0.315015
v -0.194690 0.885848 -0.267968
v -0.267968 0.885848 -0.194690
v -0.315015 0.885848 -0.102355
v -0.331226 0.885848 -0.000000
v -0.315015 0.885848 0.102355
v -0.267968 0.885848 0.194690
v -0.194690 0.885848 0.267968
v -0.102355 0.885848 0.315015
v -0.000000 0.885848 0.331226
v 0.102355 0.885848 0.315015
v 0.194690 0.885848 0.267968
v 0.267968 0.885848 0.194690
v 0.315015 0.885848 0.102355
v 0.331226 0.885848 -0.000000
v 0.440465 3.295590 -0.143116
v 0.374682 3.295590 -0.272222
v 0.272222 3.295590 -0.374682
v 0.143116 3.295590 -0.440465
v -0.000000 3.295590 -0.463133
v -0.143116 3.295590 -0.440465
v -0.272223 3.295590 -0.374682
v -0.374682 3.295590 -0.272222
v -0.440465 3.295590 -0.143116
v -0.463133 3.295590 -0.000000
v -0.440465 3.295590 0.143116
v -0.374682 3.295590 0.272222
v -0.272222 3.295590 0.374682
v -0.143116 3.295590 0.440465
v -0.000000 3.295590 0.463132
v 0.143116 3.295590 0.440465
v 0.272222 3.295590 0.374682
v 0.374682 3.295590 0.272222
v 0.440465 3.295590 0.143116
v 0.463132 3.295590 -0.000000
v 0.352698 3.539162 -0.114599
v 0.300023 3.539162 -0.217979
v 0.217979 3.539162 -0.300023
v 0.114598 3.539162 -0.352698
v -0.000000 3.539162 -0.370849
v -0.114599 3.539162 -0.352698
v -0.217979 3.539162 -0.300023
v -0.300023 3.539162 -0.217979
v -0.352698 3.539162 -0.114599
v -0.370849 3.539162 -0.000000
v -0.352698 3.539162 0.114598
v -0.300023 3.539162 0.217979
v -0.217979 3.539162 0.300023
v -0.114599 3.539162 0.352698
v -0.000000 3.539162 0.370849
v 0.114598 3.539162 0.352698
v 0.217979 3.539162 0.300023
v 0.300023 3.539162 0.217979
v 0.352698 3.539162 0.114598
v 0.370849 3.539162 -0.000000
v 0.164032 3.633480 -0.053297
v 0.139534 3.633480 -0.101377
v 0.101377 3.633480 -0.139534
v 0.053297 3.633480 -0.164032
v -0.000000 3.633480 -0.172474
v -0.053297 3.633480 -0.164032
v -0.101378 3.633480 -0.139534
v -0.139534 3.633480 -0.101378
v -0.164032 3.633480 -0.053297
v -0.172474 3.633480 -0.000000
v -0.164032 3.633480 0.053297
v -0.139534 3.633480 0.101377
v -0.101378 3.633480 0.139534
v -0.053297 3.633480 0.164032
v -0.000000 3.633480 0.172474
v 0.053297 3.633480 0.164032
v 0.101377 3.633480 0.139534
v 0.139534 3.633480 0.101377
v 0.164032 3.633480 0.053297
v 0.172474 3.633480 -0.000000
v -0.038341 4.622050 0.134962
v -0.038341 3.584481 0.066433
v 0.038341 4.630826 0.002096
v 0.038341 3.593256 -0.066433
v 0.001638 5.009424 0.090974
v 0.001638 3.589056 -0.002838
v -0.029480 4.116779 0.086170
v 0.001259 4.120297 0.032908
v 0.029480 4.123527 -0.015990
vt 0.072195 0.980420
vt 0.070216 0.601922
vt 0.108520 0.602919
vt 0.122234 0.815308
vt 0.015998 0.815556
vt 0.028281 0.602223
vt 0.019836 0.375787
vt 0.074919 0.376351
vt 0.125457 0.377400
vt 0.072195 0.980420
vt 0.070216 0.601922
vt 0.108520 0.602919
vt 0.122234 0.815308
vt 0.015998 0.815556
vt 0.028281 0.602223
vt 0.019836 0.375787
vt 0.074919 0.376351
vt 0.125457 0.377400
vt 0.072195 0.980420
vt 0.070216 0.601922
vt 0.108520 0.602919
vt 0.122234 0.815308
vt 0.015998 0.815556
vt 0.028281 0.602223
vt 0.019836 0.375787
vt 0.074919 0.376351
vt 0.125457 0.377400
vt 0.072195 0.980420
vt 0.070216 0.601922
vt 0.108520 0.602919
vt 0.122234 0.815308
vt 0.015998 0.815556
vt 0.028281 0.602223
vt 0.019836 0.375787
vt 0.074919 0.376351
vt 0.125457 0.377400
vt 0.072195 0.980420
vt 0.070216 0.601922
vt 0.108520 0.602919
vt 0.122234 0.815308
vt 0.015998 0.815556
vt 0.028281 0.602223
vt 0.019836 0.375787
vt 0.074919 0.376351
vt 0.125457 0.377400
vt 0.692617 0.214434
vt 0.717065 0.204625
vt 0.811146 0.539725
vt 0.772592 0.545348
vt 0.741375 0.193073
vt 0.850373 0.533245
vt 0.765557 0.179693
vt 0.890430 0.525828
vt 0.789604 0.164405
vt 0.931483 0.517362
vt 0.300201 0.173245
vt 0.324541 0.187547
vt 0.212187 0.533294
vt 0.171387 0.525873
vt 0.349004 0.199959
vt 0.252020 0.539727
vt 0.373561 0.210549
vt 0.291057 0.545278
vt 0.398199 0.219408
vt 0.329452 0.550016
vt 0.422892 0.226635
vt 0.367321 0.553982
vt 0.447587 0.232350
vt 0.404724 0.557186
vt 0.472223 0.236651
vt 0.441702 0.559614
vt 0.496736 0.239620
vt 0.478314 0.561251
vt 0.521132 0.241269
vt 0.514649 0.562087
vt 0.545462 0.241590
vt 0.550833 0.562125
vt 0.569809 0.240544
vt 0.587027 0.561364
vt 0.594242 0.238138
vt 0.623393 0.559793
vt 0.618784 0.234369
vt 0.660053 0.557401
vt 0.643414 0.229211
vt 0.697100 0.554188
vt 0.668048 0.222598
vt 0.734598 0.550166
vt 0.881643 0.023585
vt 0.878421 0.025227
vt 0.874849 0.014234
vt 0.884200 0.021028
vt 0.885842 0.017806
vt 0.886408 0.014234
vt 0.885842 0.010662
vt 0.884200 0.007440
vt 0.881643 0.004883
vt 0.878421 0.003241
vt 0.874849 0.002676
vt 0.871278 0.003241
vt 0.868055 0.004883
vt 0.865498 0.007440
vt 0.863856 0.010662
vt 0.863291 0.014234
vt 0.863856 0.017806
vt 0.865498 0.021028
vt 0.868055 0.023585
vt 0.871278 0.025227
vt 0.874849 0.025793
vt 0.567997 0.009677
vt 0.572138 0.008222
vt 0.575964 0.006338
vt 0.579433 0.003898
vt 0.582319 0.000998
vt 0.498053 0.003128
vt 0.501059 0.005839
vt 0.504602 0.008140
vt 0.508452 0.009903
vt 0.512646 0.011257
vt 0.516977 0.012162
vt 0.521531 0.012744
vt 0.526150 0.013032
vt 0.530874 0.013130
vt 0.535617 0.013077
vt 0.540410 0.012924
vt 0.545139 0.012710
vt 0.549910 0.012424
vt 0.554554 0.012050
vt 0.559184 0.011512
vt 0.563659 0.010750
vt 0.814711 0.847317
vt 0.775829 0.844994
vt 0.854269 0.850890
vt 0.894939 0.855522
vt 0.937640 0.860510
vt 0.213133 0.858606
vt 0.171068 0.863677
vt 0.253502 0.853639
vt 0.292820 0.849727
vt 0.331455 0.847057
vt 0.369416 0.845634
vt 0.406694 0.845252
vt 0.443477 0.845419
vt 0.480058 0.845648
vt 0.516649 0.845730
vt 0.553304 0.845662
vt 0.589976 0.845475
vt 0.626614 0.845154
vt 0.663268 0.844680
vt 0.700166 0.844169
vt 0.737628 0.844059
vt 0.797960 0.922118
vt 0.763119 0.920006
vt 0.831713 0.926420
vt 0.863825 0.934291
vt 0.892548 0.949449
vt 0.245042 0.936991
vt 0.214848 0.952207
vt 0.277390 0.928694
vt 0.311096 0.923979
vt 0.345546 0.921746
vt 0.379766 0.921483
vt 0.413807 0.922000
vt 0.448202 0.922556
vt 0.483073 0.922987
vt 0.518255 0.923255
vt 0.553586 0.923309
vt 0.588940 0.923113
vt 0.624182 0.922659
vt 0.659128 0.921924
vt 0.693696 0.920899
vt 0.728209 0.919920
vt 0.762903 0.975259
vt 0.736507 0.973893
vt 0.786910 0.977975
vt 0.807405 0.982726
vt 0.821720 0.991332
vt 0.301646 0.989233
vt 0.288449 0.999002
vt 0.321248 0.983838
vt 0.344387 0.980366
vt 0.370212 0.978186
vt 0.398178 0.976995
vt 0.427682 0.976213
vt 0.458241 0.975489
vt 0.489526 0.974821
vt 0.521307 0.974299
vt 0.553359 0.973962
vt 0.585423 0.973790
vt 0.617248 0.973730
vt 0.648571 0.973694
vt 0.679075 0.973602
vt 0.708452 0.973535
vt 0.769710 0.039683
vt 0.774144 0.026035
vt 0.782579 0.014425
vt 0.794189 0.005991
vt 0.807837 0.001556
vt 0.822188 0.001556
vt 0.835836 0.005991
vt 0.847445 0.014426
vt 0.855880 0.026035
vt 0.860315 0.039683
vt 0.860315 0.054034
vt 0.855880 0.067682
vt 0.847445 0.079291
vt 0.835835 0.087726
vt 0.822187 0.092161
vt 0.807837 0.092161
vt 0.794189 0.087726
vt 0.782579 0.079291
vt 0.774144 0.067682
vt 0.769710 0.054034
vt 0.072195 0.980420
vt 0.070216 0.601922
vt 0.108520 0.602919
vt 0.122234 0.815308
vt 0.015998 0.815556
vt 0.028281 0.602223
vt 0.019836 0.375787
vt 0.074919 0.376351
vt 0.125457 0.377400
vn 0.768167 -0.184402 0.613119
vn 0.768167 -0.184402 0.613120
vn 0.768167 -0.184401 0.613120
vn 0.768167 -0.184402 0.613120
vn 0.768167 -0.184402 0.613119
vn 0.768167 -0.184402 0.613119
vn 0.768167 -0.184402 0.613120
vn 0.768167 -0.184401 0.613120
vn 0.768167 -0.184401 0.613120
vn 1.000000 0.000000 0.000000
vn 1.000000 0.000000 0.000000
vn 1.000000 0.000000 0.000000
vn 1.000000 0.000000 0.000000
vn 1.000000 0.000000 0.000000
vn 1.000000 0.000000 0.000000
vn 1.000000 0.000000 0.000000
vn 1.000000 -0.000000 0.000000
vn 1.000000 -0.000000 0.000000
vn -0.859135 -0.117984 -0.497963
vn -0.859135 -0.117984 -0.497964
vn -0.859135 -0.117984 -0.497963
vn -0.859135 -0.117984 -0.497963
vn -0.859134 -0.117984 -0.497964
vn -0.859134 -0.117984 -0.497964
vn -0.859134 -0.117984 -0.497964
vn -0.859135 -0.117984 -0.497964
vn -0.859135 -0.117984 -0.497963
vn -0.995149 -0.098381 0.000000
vn -0.995149 -0.098381 0.000000
vn -0.995149 -0.098381 0.000000
vn -0.995149 -0.098381 0.000000
vn -0.995149 -0.098381 0.000000
vn -0.995149 -0.098381 0.000000
vn -0.995149 -0.098381 0.000000
vn -0.995149 -0.098381 0.000000
vn -0.995149 -0.098381 0.000000
vn -0.746299 -0.259080 -0.613120
vn -0.746299 -0.259080 -0.613120
vn -0.746299 -0.259080 -0.613120
vn -0.746299 -0.259080 -0.613120
vn -0.746299 -0.259080 -0.613120
vn -0.746299 -0.259080 -0.613120
vn -0.746299 -0.259080 -0.613120
vn -0.746299 -0.259080 -0.613120
vn -0.746299 -0.259080 -0.613120
vn 0.940162 -0.150933 -0.305476
vn 0.799749 -0.150933 -0.581051
vn 0.807982 -0.050572 -0.587033
vn 0.949840 -0.050572 -0.308621
vn 0.581052 -0.150933 -0.799749
vn 0.587033 -0.050572 -0.807982
vn 0.305477 -0.150933 -0.940161
vn 0.308622 -0.050572 -0.949840
vn -0.000000 -0.150933 -0.988544
vn -0.000000 -0.050572 -0.998720
vn -0.305477 -0.150933 -0.940161
vn -0.308622 -0.050572 -0.949840
vn -0.581052 -0.150933 -0.799748
vn -0.587034 -0.050572 -0.807982
vn -0.799749 -0.150933 -0.581052
vn -0.807982 -0.050572 -0.587033
vn -0.940161 -0.150933 -0.305477
vn -0.949840 -0.050572 -0.308622
vn -0.988544 -0.150933 0.000000
vn -0.998720 -0.050572 0.000000
vn -0.940161 -0.150933 0.305477
vn -0.949839 -0.050572 0.308622
vn -0.799749 -0.150933 0.581052
vn -0.807982 -0.050572 0.587034
vn -0.581052 -0.150933 0.799749
vn -0.587033 -0.050572 0.807982
vn -0.305477 -0.150933 0.940161
vn -0.308622 -0.050572 0.949840
vn 0.000000 -0.150933 0.988544
vn 0.000000 -0.050572 0.998720
vn 0.305477 -0.150933 0.940161
vn 0.308622 -0.050572 0.949840
vn 0.581052 -0.150933 0.799749
vn 0.587033 -0.050572 0.807982
vn 0.799749 -0.150933 0.581052
vn 0.807982 -0.050572 0.587033
vn 0.940161 -0.150933 0.305477
vn 0.949839 -0.050572 0.308622
vn 0.988544 -0.150933 -0.000000
vn 0.998721 -0.050572 0.000000
vn 0.768983 -0.310676 -0.558700
vn 0.903995 -0.310676 -0.293725
vn 0.000000 -1.000000 -0.000000
vn 0.558700 -0.310676 -0.768983
vn 0.293725 -0.310676 -0.903995
vn 0.000000 -0.310675 -0.950516
vn -0.293726 -0.310676 -0.903994
vn -0.558701 -0.310675 -0.768983
vn -0.768983 -0.310675 -0.558700
vn -0.903995 -0.310675 -0.293725
vn -0.950516 -0.310675 0.000000
vn -0.903995 -0.310676 0.293726
vn -0.768983 -0.310675 0.558701
vn -0.558701 -0.310675 0.768983
vn -0.293725 -0.310676 0.903995
vn -0.000000 -0.310675 0.950516
vn 0.293725 -0.310676 0.903995
vn 0.558701 -0.310675 0.768983
vn 0.768983 -0.310675 0.558701
vn 0.903994 -0.310676 0.293726
vn 0.950516 -0.310675 -0.000000
vn 0.807500 0.061207 -0.586683
vn 0.949274 0.061207 -0.308437
vn 0.586683 0.061207 -0.807500
vn 0.308438 0.061207 -0.949273
vn -0.000000 0.061207 -0.998125
vn -0.308438 0.061207 -0.949273
vn -0.586683 0.061207 -0.807500
vn -0.807500 0.061207 -0.586683
vn -0.949273 0.061207 -0.308438
vn -0.998125 0.061207 -0.000000
vn -0.949273 0.061207 0.308438
vn -0.807500 0.061207 0.586683
vn -0.586683 0.061207 0.807500
vn -0.308438 0.061207 0.949273
vn 0.000000 0.061207 0.998125
vn 0.308438 0.061207 0.949273
vn 0.586683 0.061207 0.807500
vn 0.807500 0.061207 0.586683
vn 0.949273 0.061207 0.308438
vn 0.998125 0.061207 0.000000
vn 0.665333 0.568914 -0.483393
vn 0.782146 0.568914 -0.254135
vn 0.483393 0.568914 -0.665334
vn 0.254135 0.568914 -0.782146
vn -0.000000 0.568914 -0.822397
vn -0.254135 0.568914 -0.782146
vn -0.483393 0.568914 -0.665333
vn -0.665333 0.568914 -0.483393
vn -0.782146 0.568914 -0.254136
vn -0.822397 0.568914 0.000000
vn -0.782146 0.568914 0.254136
vn -0.665333 0.568914 0.483393
vn -0.483393 0.568914 0.665333
vn -0.254135 0.568914 0.782146
vn -0.000000 0.568914 0.822397
vn 0.254135 0.568914 0.782146
vn 0.483393 0.568914 0.665333
vn 0.665333 0.568914 0.483393
vn 0.782146 0.568914 0.254136
vn 0.822397 0.568914 -0.000000
vn 0.068971 0.996359 -0.050110
vn 0.081079 0.996359 -0.026344
vn 0.050110 0.996359 -0.068971
vn 0.026344 0.996359 -0.081080
vn -0.000000 0.996359 -0.085252
vn -0.026344 0.996359 -0.081080
vn -0.050110 0.996359 -0.068970
vn -0.068970 0.996359 -0.050110
vn -0.081080 0.996359 -0.026345
vn -0.085252 0.996359 -0.000000
vn -0.081080 0.996359 0.026345
vn -0.068970 0.996359 0.050110
vn -0.050110 0.996359 0.068971
vn -0.026344 0.996359 0.081080
vn -0.000000 0.996359 0.085252
vn 0.026344 0.996359 0.081080
vn 0.050110 0.996359 0.068970
vn 0.068970 0.996359 0.050110
vn 0.081080 0.996359 0.026345
vn 0.085252 0.996359 0.000000
vn 0.866574 -0.032889 0.497963
vn 0.866574 -0.032889 0.497963
vn 0.866574 -0.032889 0.497964
vn 0.866574 -0.032889 0.497963
vn 0.866574 -0.032889 0.497963
vn 0.866574 -0.032889 0.497963
vn 0.866574 -0.032889 0.497963
vn 0.866574 -0.032889 0.497963
vn 0.866574 -0.032889 0.497964
s 1
g group3
f 5/1/1 8/2/2 9/3/3 3/4/4
f 1/5/5 7/6/6 8/2/2 5/1/1
f 8/2/2 7/6/6 2/7/7 6/8/8
f 9/3/3 8/2/2 6/8/8 4/9/9
s 2
f 14/10/10 17/11/11 18/12/12 12/13/13
f 10/14/14 16/15/15 17/11/11 14/10/10
f 17/11/11 16/15/15 11/16/16 15/17/17
f 18/12/12 17/11/11 15/17/17 13/18/18
s 3
f 23/19/19 26/20/20 27/21/21 21/22/22
f 19/23/23 25/24/24 26/20/20 23/19/19
f 26/20/20 25/24/24 20/25/25 24/26/26
f 27/21/21 26/20/20 24/26/26 22/27/27
s 4
f 32/28/28 35/29/29 36/30/30 30/31/31
f 28/32/32 34/33/33 35/29/29 32/28/28
f 35/29/29 34/33/33 29/34/34 33/35/35
f 36/30/30 35/29/29 33/35/35 31/36/36
s 5
f 41/37/37 44/38/38 45/39/39 39/40/40
f 37/41/41 43/42/42 44/38/38 41/37/37
f 44/38/38 43/42/42 38/43/43 42/44/44
f 45/39/39 44/38/38 42/44/44 40/45/45
s 6
f 87/46/46 88/47/47 67/48/48 66/49/49
f 88/47/47 89/50/50 68/51/51 67/48/48
f 89/50/50 90/52/52 69/53/53 68/51/51
f 90/52/52 91/54/54 70/55/55 69/53/53
f 91/56/54 92/57/56 71/58/57 70/59/55
f 92/57/56 93/60/58 72/61/59 71/58/57
f 93/60/58 94/62/60 73/63/61 72/61/59
f 94/62/60 95/64/62 74/65/63 73/63/61
f 95/64/62 96/66/64 75/67/65 74/65/63
f 96/66/64 97/68/66 76/69/67 75/67/65
f 97/68/66 98/70/68 77/71/69 76/69/67
f 98/70/68 99/72/70 78/73/71 77/71/69
f 99/72/70 100/74/72 79/75/73 78/73/71
f 100/74/72 101/76/74 80/77/75 79/75/73
f 101/76/74 102/78/76 81/79/77 80/77/75
f 102/78/76 103/80/78 82/81/79 81/79/77
f 103/80/78 104/82/80 83/83/81 82/81/79
f 104/82/80 105/84/82 84/85/83 83/83/81
f 105/84/82 106/86/84 85/87/85 84/85/83
f 106/86/84 87/46/46 66/49/49 85/87/85
f 47/88/86 46/89/87 86/90/88
f 48/91/89 47/88/86 86/90/88
f 49/92/90 48/91/89 86/90/88
f 50/93/91 49/92/90 86/90/88
f 51/94/92 50/93/91 86/90/88
f 52/95/93 51/94/92 86/90/88
f 53/96/94 52/95/93 86/90/88
f 54/97/95 53/96/94 86/90/88
f 55/98/96 54/97/95 86/90/88
f 56/99/97 55/98/96 86/90/88
f 57/100/98 56/99/97 86/90/88
f 58/101/99 57/100/98 86/90/88
f 59/102/100 58/101/99 86/90/88
f 60/103/101 59/102/100 86/90/88
f 61/104/102 60/103/101 86/90/88
f 62/105/103 61/104/102 86/90/88
f 63/106/104 62/105/103 86/90/88
f 64/107/105 63/106/104 86/90/88
f 65/108/106 64/107/105 86/90/88
f 46/89/87 65/108/106 86/90/88
f 46/109/87 47/110/86 88/47/47 87/46/46
f 47/110/86 48/111/89 89/50/50 88/47/47
f 48/111/89 49/112/90 90/52/52 89/50/50
f 49/112/90 50/113/91 91/54/54 90/52/52
f 50/114/91 51/115/92 92/57/56 91/56/54
f 51/115/92 52/116/93 93/60/58 92/57/56
f 52/116/93 53/117/94 94/62/60 93/60/58
f 53/117/94 54/118/95 95/64/62 94/62/60
f 54/118/95 55/119/96 96/66/64 95/64/62
f 55/119/96 56/120/97 97/68/66 96/66/64
f 56/120/97 57/121/98 98/70/68 97/68/66
f 57/121/98 58/122/99 99/72/70 98/70/68
f 58/122/99 59/123/100 100/74/72 99/72/70
f 59/123/100 60/124/101 101/76/74 100/74/72
f 60/124/101 61/125/102 102/78/76 101/76/74
f 61/125/102 62/126/103 103/80/78 102/78/76
f 62/126/103 63/127/104 104/82/80 103/80/78
f 63/127/104 64/128/105 105/84/82 104/82/80
f 64/128/105 65/129/106 106/86/84 105/84/82
f 65/129/106 46/109/87 87/46/46 106/86/84
f 66/49/49 67/48/48 108/130/107 107/131/108
f 67/48/48 68/51/51 109/132/109 108/130/107
f 68/51/51 69/53/53 110/133/110 109/132/109
f 69/53/53 70/55/55 111/134/111 110/133/110
f 70/59/55 71/58/57 112/135/112 111/136/111
f 71/58/57 72/61/59 113/137/113 112/135/112
f 72/61/59 73/63/61 114/138/114 113/137/113
f 73/63/61 74/65/63 115/139/115 114/138/114
f 74/65/63 75/67/65 116/140/116 115/139/115
f 75/67/65 76/69/67 117/141/117 116/140/116
f 76/69/67 77/71/69 118/142/118 117/141/117
f 77/71/69 78/73/71 119/143/119 118/142/118
f 78/73/71 79/75/73 120/144/120 119/143/119
f 79/75/73 80/77/75 121/145/121 120/144/120
f 80/77/75 81/79/77 122/146/122 121/145/121
f 81/79/77 82/81/79 123/147/123 122/146/122
f 82/81/79 83/83/81 124/148/124 123/147/123
f 83/83/81 84/85/83 125/149/125 124/148/124
f 84/85/83 85/87/85 126/150/126 125/149/125
f 85/87/85 66/49/49 107/131/108 126/150/126
f 107/131/108 108/130/107 128/151/127 127/152/128
f 108/130/107 109/132/109 129/153/129 128/151/127
f 109/132/109 110/133/110 130/154/130 129/153/129
f 110/133/110 111/134/111 131/155/131 130/154/130
f 111/136/111 112/135/112 132/156/132 131/157/131
f 112/135/112 113/137/113 133/158/133 132/156/132
f 113/137/113 114/138/114 134/159/134 133/158/133
f 114/138/114 115/139/115 135/160/135 134/159/134
f 115/139/115 116/140/116 136/161/136 135/160/135
f 116/140/116 117/141/117 137/162/137 136/161/136
f 117/141/117 118/142/118 138/163/138 137/162/137
f 118/142/118 119/143/119 139/164/139 138/163/138
f 119/143/119 120/144/120 140/165/140 139/164/139
f 120/144/120 121/145/121 141/166/141 140/165/140
f 121/145/121 122/146/122 142/167/142 141/166/141
f 122/146/122 123/147/123 143/168/143 142/167/142
f 123/147/123 124/148/124 144/169/144 143/168/143
f 124/148/124 125/149/125 145/170/145 144/169/144
f 125/149/125 126/150/126 146/171/146 145/170/145
f 126/150/126 107/131/108 127/152/128 146/171/146
f 127/152/128 128/151/127 148/172/147 147/173/148
f 128/151/127 129/153/129 149/174/149 148/172/147
f 129/153/129 130/154/130 150/175/150 149/174/149
f 130/154/130 131/155/131 151/176/151 150/175/150
f 131/157/131 132/156/132 152/177/152 151/178/151
f 132/156/132 133/158/133 153/179/153 152/177/152
f 133/158/133 134/159/134 154/180/154 153/179/153
f 134/159/134 135/160/135 155/181/155 154/180/154
f 135/160/135 136/161/136 156/182/156 155/181/155
f 136/161/136 137/162/137 157/183/157 156/182/156
f 137/162/137 138/163/138 158/184/158 157/183/157
f 138/163/138 139/164/139 159/185/159 158/184/158
f 139/164/139 140/165/140 160/186/160 159/185/159
f 140/165/140 141/166/141 161/187/161 160/186/160
f 141/166/141 142/167/142 162/188/162 161/187/161
f 142/167/142 143/168/143 163/189/163 162/188/162
f 143/168/143 144/169/144 164/190/164 163/189/163
f 144/169/144 145/170/145 165/191/165 164/190/164
f 145/170/145 146/171/146 166/192/166 165/191/165
f 146/171/146 127/152/128 147/173/148 166/192/166
f 148/193/147 149/194/149 150/195/150 151/196/151 152/197/152 153/198/153 154/199/154 155/200/155 156/201/156 157/202/157 158/203/158 159/204/159 160/205/160 161/206/161 162/207/162 163/208/163 164/209/164 165/210/165 166/211/166 147/212/148
s 7
f 171/213/167 174/214/168 175/215/169 169/216/170
f 167/217/171 173/218/172 174/214/168 171/213/167
f 174/214/168 173/218/172 168/219/173 172/220/174
f 175/215/169 174/214/168 172/220/174 170/221/175
