# This file uses centimeters as units for non-parametric coordinates.

g default
v 0.150503 0.109347 0.892671
v 0.093016 0.030223 0.892671
v 0.048901 0.007745 0.892671
v -0.048901 0.007745 0.892671
v -0.093016 0.030223 0.892671
v -0.150503 0.109347 0.892671
v -0.158248 0.158248 0.892671
v -0.128025 0.251264 0.892671
v -0.093016 0.286273 0.892671
v -0.000000 0.316496 0.892671
v 0.048901 0.308751 0.892671
v 0.128025 0.251264 0.892671
v 0.150503 0.207149 0.892671
v 0.417796 0.109347 -0.823658
v 0.363461 0.030223 -0.842431
v 0.321765 0.007745 -0.856838
v 0.229324 0.007745 -0.888777
v 0.187628 0.030223 -0.903183
v 0.133293 0.109347 -0.921957
v 0.125973 0.158248 -0.924486
v 0.154538 0.251264 -0.914616
v 0.187628 0.286273 -0.903183
v 0.275545 0.316496 -0.872807
v 0.321765 0.308751 -0.856838
v 0.396551 0.251264 -0.830999
v 0.417796 0.207149 -0.823658
v 0.128383 0.116534 0.982081
v 0.079345 0.049039 0.982081
v 0.041714 0.029866 0.982081
v -0.041714 0.029866 0.982081
v -0.079345 0.049039 0.982081
v -0.128383 0.116534 0.982081
v -0.134989 0.158248 0.982081
v -0.109209 0.237593 0.982081
v -0.079345 0.267457 0.982081
v -0.000000 0.293237 0.982081
v 0.041714 0.286631 0.982081
v 0.109209 0.237593 0.982081
v 0.128382 0.199962 0.982081
v 0.426087 0.116534 -0.915390
v 0.379737 0.049039 -0.931404
v 0.344170 0.029866 -0.943693
v 0.265316 0.029866 -0.970938
v 0.229748 0.049039 -0.983227
v 0.183399 0.116534 -0.999241
v 0.177155 0.158248 -1.001399
v 0.201522 0.237593 -0.992980
v 0.229748 0.267457 -0.983227
v 0.304743 0.293237 -0.957316
v 0.344170 0.286631 -0.943693
v 0.407964 0.237593 -0.921651
v 0.426087 0.199962 -0.915390
v 0.087459 0.129831 1.041746
v 0.054053 0.083851 1.041746
v 0.028417 0.070789 1.041746
v -0.028417 0.070789 1.041746
v -0.054053 0.083851 1.041746
v -0.087459 0.129831 1.041746
v -0.091960 0.158248 1.041746
v -0.074397 0.212301 1.041746
v -0.054053 0.232645 1.041746
v -0.000000 0.250208 1.041746
v 0.028417 0.245707 1.041746
v 0.074397 0.212301 1.041746
v 0.087459 0.186665 1.041746
v 0.406892 0.129831 -0.985148
v 0.375317 0.083851 -0.996057
v 0.351087 0.070789 -1.004429
v 0.297368 0.070789 -1.022989
v 0.273138 0.083851 -1.031361
v 0.241564 0.129831 -1.042270
v 0.237310 0.158248 -1.043740
v 0.253909 0.212301 -1.038005
v 0.273139 0.232645 -1.031361
v 0.324228 0.250208 -1.013709
v 0.351087 0.245707 -1.004429
v 0.394546 0.212301 -0.989413
v 0.406892 0.186665 -0.985148
v 0.051522 0.141508 1.064561
v 0.031842 0.114421 1.064561
v 0.016740 0.106726 1.064561
v -0.016741 0.106726 1.064561
v -0.031842 0.114421 1.064561
v -0.051522 0.141508 1.064561
v -0.054173 0.158248 1.064561
v -0.043827 0.190090 1.064561
v -0.031842 0.202075 1.064561
v 0.000000 0.212421 1.064561
v 0.016740 0.209770 1.064561
v 0.043827 0.190090 1.064561
v 0.051522 0.174988 1.064561
v 0.380375 0.141508 -1.018447
v 0.361774 0.114421 -1.024874
v 0.347501 0.106726 -1.029806
v 0.315855 0.106726 -1.040740
v 0.301582 0.114421 -1.045671
v 0.282981 0.141508 -1.052098
v 0.280475 0.158248 -1.052964
v 0.290254 0.190090 -1.049585
v 0.301582 0.202075 -1.045671
v 0.331678 0.212421 -1.035273
v 0.347501 0.209770 -1.029806
v 0.373102 0.190090 -1.020960
v 0.380375 0.174988 -1.018447
v 0.150503 0.109347 0.470240
v 0.093016 0.030223 0.470240
v 0.048901 0.007745 0.470240
v -0.048901 0.007745 0.470240
v -0.093016 0.030223 0.470240
v -0.150503 0.109347 0.470240
v -0.158248 0.158248 0.470240
v -0.128025 0.251264 0.470240
v -0.093016 0.286273 0.470240
v -0.000000 0.316496 0.470240
v 0.048901 0.308751 0.470240
v 0.128025 0.251264 0.470240
v 0.150503 0.207149 0.470240
v 0.279844 0.109347 -0.424389
v 0.225509 0.030223 -0.443162
v 0.183813 0.007745 -0.457568
v 0.091372 0.007745 -0.489508
v 0.049677 0.030223 -0.503914
v -0.004659 0.109347 -0.522687
v -0.011979 0.158248 -0.525217
v 0.016587 0.251264 -0.515347
v 0.049677 0.286273 -0.503914
v 0.137593 0.316496 -0.473538
v 0.183813 0.308751 -0.457568
v 0.258599 0.251264 -0.431729
v 0.279844 0.207149 -0.424389
v 0.186692 0.109347 0.020289
v 0.130037 0.030223 0.010546
v 0.086561 0.007745 0.003068
v -0.009827 0.007745 -0.013509
v -0.053303 0.030223 -0.020986
v -0.109958 0.109347 -0.030730
v -0.117591 0.158248 -0.032042
v -0.087806 0.251264 -0.026920
v -0.053303 0.286273 -0.020986
v 0.038367 0.316496 -0.005220
v 0.086561 0.308751 0.003068
v 0.164540 0.251264 0.016479
v 0.186692 0.207149 0.020289
vt 0.706854 0.310159
vt 0.884558 0.291344
vt 0.705903 0.264215
vt 0.877684 0.255805
vt 0.706625 0.241506
vt 0.876185 0.238139
vt 0.709800 0.196660
vt 0.876772 0.202906
vt 0.711937 0.174454
vt 0.878810 0.185294
vt 0.716587 0.130221
vt 0.886487 0.149937
vt 0.718871 0.108098
vt 0.892201 0.132156
vt 0.722952 0.063489
vt 0.907482 0.096398
vt 0.724669 0.040914
vt 0.916878 0.078275
vt 0.727339 -0.005014
vt 0.936226 0.039688
vt 0.723195 0.425444
vt 0.924888 0.381916
vt 0.714817 0.379494
vt 0.905294 0.345171
vt 0.711356 0.356402
vt 0.896983 0.327164
vt 0.118040 0.291337
vt 0.077684 0.280588
vt 0.124717 0.255800
vt 0.083176 0.250684
vt 0.126133 0.238132
vt 0.084340 0.235823
vt 0.125400 0.202891
vt 0.083766 0.206178
vt 0.123274 0.185273
vt 0.082049 0.191358
vt 0.115386 0.149903
vt 0.075610 0.161602
vt 0.109540 0.132119
vt 0.070730 0.146661
vt 0.093948 0.096348
vt 0.057010 0.116994
vt 0.084403 0.078234
vt 0.047863 0.102556
vt 0.065232 0.039910
vt 0.024424 0.076408
vt 0.078298 0.382001
vt 0.040554 0.353890
vt 0.097718 0.345164
vt 0.060018 0.325501
vt 0.105881 0.327156
vt 0.067324 0.310637
vt 0.924877 0.280256
vt 0.919228 0.250409
vt 0.917984 0.235561
vt 0.918402 0.205921
vt 0.920037 0.191091
vt 0.926317 0.161282
vt 0.931127 0.146304
vt 0.944658 0.116565
vt 0.953661 0.102088
vt 0.975089 0.365940
vt 0.962551 0.353399
vt 0.942792 0.325049
vt 0.935388 0.310222
vt 0.045115 0.268805
vt 0.048827 0.245111
vt 0.049605 0.233212
vt 0.049126 0.209422
vt 0.047886 0.197563
vt 0.043377 0.174015
vt 0.040029 0.162388
vt 0.030605 0.139739
vt 0.024072 0.129152
vt 0.005223 0.113346
vt 0.018581 0.323325
vt 0.033000 0.303364
vt 0.038078 0.292105
vt 0.957493 0.268390
vt 0.953605 0.244785
vt 0.952733 0.232910
vt 0.953027 0.209123
vt 0.954174 0.197244
vt 0.958507 0.173609
vt 0.961793 0.161916
vt 0.971187 0.139171
vt 0.977680 0.128595
vt 0.994828 0.329430
vt 0.984346 0.322801
vt 0.969704 0.302783
vt 0.964620 0.291561
vt 0.026974 0.261080
vt 0.029607 0.241370
vt 0.030144 0.231350
vt 0.029669 0.211243
vt 0.028672 0.201256
vt 0.025212 0.181683
vt 0.022754 0.172222
vt 0.016342 0.154447
vt 0.012253 0.146460
vt 0.000913 0.135058
vt 0.009849 0.303734
vt 0.018909 0.288687
vt 0.022196 0.279898
vt 0.975863 0.261053
vt 0.972931 0.241452
vt 0.972246 0.231445
vt 0.972429 0.211336
vt 0.973276 0.201333
vt 0.976440 0.181650
vt 0.978758 0.172094
vt 0.984998 0.154086
vt 0.989138 0.146003
vt 0.999478 0.307812
vt 0.993119 0.303239
vt 0.984247 0.288326
vt 0.980905 0.279667
vt 0.294549 0.309767
vt 0.295774 0.264074
vt 0.295324 0.241414
vt 0.292755 0.196484
vt 0.290865 0.174162
vt 0.286440 0.129631
vt 0.284097 0.107353
vt 0.279516 0.062538
vt 0.277387 0.039953
vt 0.276031 0.447861
vt 0.279838 0.424802
vt 0.287216 0.378757
vt 0.290321 0.355735
vt 0.499521 0.312382
vt 0.500002 0.265151
vt 0.500385 0.241737
vt 0.501221 0.195413
vt 0.501584 0.172476
vt 0.502023 0.126920
vt 0.502054 0.104232
vt 0.501698 0.058867
vt 0.501320 0.036080
vt 0.501363 0.453400
vt 0.500799 0.430266
vt 0.499886 0.383457
vt 0.499610 0.359812
vt 0.500279 -0.009768
vt 0.727557 0.448375
vt 0.934019 0.401666
vt 0.273700 -0.005842
vt 0.995975 0.112918
vt 1.000603 0.134345
vt 0.008449 0.329862
vt 0.003512 0.308532
vt 0.976890 0.076417
vt 0.028031 0.365960
vt 0.068927 0.401987
vt 0.017428 0.591556
vt 0.062743 0.502621
vt 0.103621 0.472921
vt 0.202206 0.457307
vt 0.250262 0.472921
vt 0.320841 0.543500
vt 0.336455 0.591555
vt 0.320841 0.690140
vt 0.291141 0.731019
vt 0.202207 0.776334
vt 0.151678 0.776334
vt 0.062743 0.731019
vt 0.033043 0.690141
vt 0.320841 0.690141
vt 0.291141 0.731019
vt 0.202206 0.776334
vt 0.151677 0.776333
vt 0.062743 0.731019
vt 0.033043 0.690140
vt 0.017428 0.591555
vt 0.033043 0.543499
vt 0.103622 0.472920
vt 0.151678 0.457306
vt 0.250263 0.472921
vt 0.291141 0.502621
vt 0.336455 0.591556
vn 0.680769 -0.706827 0.192221
vn 0.911499 -0.308759 0.271731
vn 0.916046 -0.313493 0.250163
vn 0.676785 -0.712369 0.185720
vn 0.141665 -0.989142 0.039107
vn 0.161407 -0.986805 0.012776
vn -0.134867 -0.986805 -0.089590
vn -0.160523 -0.986073 -0.043495
vn -0.687486 -0.701636 -0.187268
vn -0.654229 -0.706827 -0.269035
vn -0.828375 -0.453232 -0.329205
vn -0.861185 -0.450309 -0.235758
vn -0.952818 0.155491 -0.260692
vn -0.919560 0.155880 -0.360710
vn -0.828006 0.453999 -0.329077
vn -0.861880 0.449263 -0.235213
vn -0.445560 0.886932 -0.121767
vn -0.415837 0.890075 -0.186668
vn -0.134064 0.986940 -0.089313
vn -0.160513 0.986087 -0.043219
vn 0.429769 0.895157 0.118291
vn 0.441653 0.890466 0.109604
vn 0.681344 0.706218 0.192420
vn 0.677803 0.711576 0.185048
vn 0.952382 0.158585 0.260423
vn 0.945972 0.156731 0.283852
vn 0.656758 -0.657234 0.369746
vn 0.706219 -0.706827 0.040635
vn 0.950264 -0.308759 0.040833
vn 0.883056 -0.286922 0.371332
vn 0.156730 -0.986805 0.040635
vn 0.145681 -0.917641 0.369746
vn -0.145681 -0.917641 0.369746
vn -0.156730 -0.986805 0.040635
vn -0.706219 -0.706827 0.040635
vn -0.656758 -0.657234 0.369745
vn -0.828017 -0.421517 0.369745
vn -0.890466 -0.453232 0.040635
vn -0.986940 0.155880 0.040635
vn -0.917747 0.145016 0.369746
vn -0.827711 0.422118 0.369746
vn -0.890075 0.453999 0.040635
vn -0.453999 0.890075 0.040635
vn -0.422118 0.827711 0.369746
vn -0.145016 0.917746 0.369746
vn -0.155880 0.986940 0.040635
vn 0.453232 0.890466 0.040635
vn 0.421518 0.828016 0.369746
vn 0.657235 0.656758 0.369745
vn 0.706827 0.706218 0.040635
vn 0.986805 0.156730 0.040635
vn 0.917641 0.145681 0.369745
vn 0.955906 -0.286923 -0.062596
vn 0.741497 -0.657235 -0.134998
vn 0.258441 -0.917641 -0.301900
vn -0.016947 -0.917641 -0.397049
vn -0.500004 -0.657235 -0.563950
vn -0.661873 -0.421517 -0.619877
vn -0.746683 0.145015 -0.649180
vn -0.661584 0.422117 -0.619777
vn -0.278227 0.827711 -0.487324
vn -0.016318 0.917746 -0.396831
vn 0.519155 0.828016 -0.211820
vn 0.741947 0.656759 -0.134843
vn 0.988077 0.145682 -0.049802
vn 0.537368 -0.534188 0.652594
vn 0.718983 -0.233612 0.654591
vn 0.116310 -0.748728 0.652594
vn -0.116310 -0.748728 0.652594
vn -0.537369 -0.534188 0.652594
vn -0.674099 -0.345995 0.652594
vn -0.748024 0.120753 0.652594
vn -0.676141 0.341987 0.652593
vn -0.341987 0.676141 0.652594
vn -0.120752 0.748024 0.652594
vn 0.345995 0.674099 0.652594
vn 0.534188 0.537368 0.652594
vn 0.748728 0.116310 0.652594
vn 0.893332 -0.233613 -0.383905
vn 0.721022 -0.534188 -0.441327
vn 0.323049 -0.748728 -0.578832
vn 0.103183 -0.748728 -0.654797
vn -0.294791 -0.534188 -0.792302
vn -0.424026 -0.345994 -0.836953
vn -0.493897 0.120752 -0.861095
vn -0.425955 0.341986 -0.837620
vn -0.110120 0.676141 -0.728496
vn 0.098985 0.748024 -0.656248
vn 0.540142 0.674099 -0.503823
vn 0.718016 0.537369 -0.442366
vn 0.920794 0.116311 -0.372305
vn 0.121465 -0.039466 0.991811
vn 0.069250 -0.068163 0.995268
vn 0.014440 -0.096090 0.995268
vn -0.014441 -0.096090 0.995268
vn -0.069251 -0.068163 0.995268
vn -0.086227 -0.044798 0.995268
vn -0.095850 0.015960 0.995268
vn -0.086925 0.043427 0.995268
vn -0.043428 0.086925 0.995268
vn -0.015960 0.095850 0.995268
vn 0.044797 0.086226 0.995268
vn 0.068163 0.069251 0.995268
vn 0.096090 0.014441 0.995268
vn 0.438698 -0.039466 -0.897767
vn 0.390476 -0.068163 -0.918086
vn 0.338670 -0.096090 -0.935986
vn 0.311373 -0.096090 -0.945417
vn 0.259568 -0.068163 -0.963316
vn 0.243522 -0.044798 -0.968860
vn 0.234427 0.015959 -0.972003
vn 0.242862 0.043427 -0.969088
vn 0.283976 0.086924 -0.954883
vn 0.309937 0.095849 -0.945913
vn 0.367363 0.086226 -0.926072
vn 0.389448 0.069251 -0.918442
vn 0.415844 0.014441 -0.909321
vn 0.949266 -0.311953 0.039739
vn 0.703150 -0.710441 0.029221
vn 0.149764 -0.988703 0.006172
vn -0.163375 -0.986538 -0.007220
vn -0.710584 -0.702921 -0.031176
vn -0.891670 -0.451023 -0.038761
vn -0.986883 0.155593 -0.043043
vn -0.892006 0.450331 -0.039086
vn -0.459492 0.887959 -0.019904
vn -0.163331 0.986544 -0.007328
vn 0.448193 0.893744 0.018578
vn 0.703640 0.709939 0.029619
vn 0.986623 0.157753 0.041101
vn 0.939784 -0.313675 0.135701
vn 0.694572 -0.712320 0.100848
vn 0.144669 -0.989254 0.021155
vn -0.165899 -0.985848 -0.024123
vn -0.706011 -0.700625 -0.103311
vn -0.883849 -0.449345 -0.130003
vn -0.977377 0.155103 -0.143798
vn -0.884388 0.448349 -0.129772
vn -0.458435 0.886188 -0.067138
vn -0.165709 0.985883 -0.023976
vn 0.440800 0.895301 0.064273
vn 0.695427 0.711524 0.100575
vn 0.977222 0.158468 0.141159
s 1
g pCylinder3
f 15/4/1 14/2/2 118/1/3 119/3/4
f 119/3/4 120/5/5 16/6/6 15/4/1
f 17/8/7 16/6/6 120/5/5 121/7/8
f 121/7/8 122/9/9 18/10/10 17/8/7
f 19/12/11 18/10/10 122/9/9 123/11/12
f 123/11/12 124/13/13 20/14/14 19/12/11
f 21/16/15 20/14/14 124/13/13 125/15/16
f 125/15/16 126/17/17 22/18/18 21/16/15
f 23/20/19 22/18/18 126/17/17 127/19/20
f 127/145/20 128/21/21 24/22/22 23/146/19
f 25/24/23 24/22/22 128/21/21 129/23/24
f 129/23/24 130/25/25 26/26/26 25/24/23
f 14/2/2 26/26/26 130/25/25 118/1/3
f 28/30/27 2/29/28 1/27/29 27/28/30
f 3/31/31 2/29/28 28/30/27 29/32/32
f 30/34/33 4/33/34 3/31/31 29/32/32
f 5/35/35 4/33/34 30/34/33 31/36/36
f 32/38/37 6/37/38 5/35/35 31/36/36
f 7/39/39 6/37/38 32/38/37 33/40/40
f 34/42/41 8/41/42 7/39/39 33/40/40
f 9/43/43 8/41/42 34/42/41 35/44/44
f 36/46/45 10/45/46 9/43/43 35/44/44
f 11/47/47 10/154/46 36/153/45 37/48/48
f 38/50/49 12/49/50 11/47/47 37/48/48
f 13/51/51 12/49/50 38/50/49 39/52/52
f 27/28/30 1/27/29 13/51/51 39/52/52
f 40/53/53 14/2/2 15/4/1 41/54/54
f 15/4/1 16/6/6 42/55/55 41/54/54
f 42/55/55 16/6/6 17/8/7 43/56/56
f 17/8/7 18/10/10 44/57/57 43/56/56
f 44/57/57 18/10/10 19/12/11 45/58/58
f 19/12/11 20/14/14 46/59/59 45/58/58
f 46/59/59 20/14/14 21/16/15 47/60/60
f 21/16/15 22/18/18 48/61/61 47/60/60
f 48/61/61 22/18/18 23/20/19 49/152/62
f 23/146/19 24/22/22 50/63/63 49/62/62
f 50/63/63 24/22/22 25/24/23 51/64/64
f 25/24/23 26/26/26 52/65/65 51/64/64
f 52/65/65 26/26/26 14/2/2 40/53/53
f 54/67/66 28/30/27 27/28/30 53/66/67
f 29/32/32 28/30/27 54/67/66 55/68/68
f 56/69/69 30/34/33 29/32/32 55/68/68
f 31/36/36 30/34/33 56/69/69 57/70/70
f 58/71/71 32/38/37 31/36/36 57/70/70
f 33/40/40 32/38/37 58/71/71 59/72/72
f 60/73/73 34/42/41 33/40/40 59/72/72
f 35/44/44 34/42/41 60/73/73 61/74/74
f 62/75/75 36/46/45 35/44/44 61/74/74
f 37/48/48 36/153/45 62/150/75 63/76/76
f 64/77/77 38/50/49 37/48/48 63/76/76
f 39/52/52 38/50/49 64/77/77 65/78/78
f 53/66/67 27/28/30 39/52/52 65/78/78
f 66/79/79 40/53/53 41/54/54 67/80/80
f 41/54/54 42/55/55 68/81/81 67/80/80
f 68/81/81 42/55/55 43/56/56 69/82/82
f 43/56/56 44/57/57 70/83/83 69/82/82
f 70/83/83 44/57/57 45/58/58 71/84/84
f 45/58/58 46/59/59 72/85/85 71/84/84
f 72/85/85 46/59/59 47/60/60 73/86/86
f 47/60/60 48/61/61 74/87/87 73/86/86
f 74/87/87 48/61/61 49/152/62 75/148/88
f 49/62/62 50/63/63 76/89/89 75/88/88
f 76/89/89 50/63/63 51/64/64 77/90/90
f 51/64/64 52/65/65 78/91/91 77/90/90
f 78/91/91 52/65/65 40/53/53 66/79/79
f 79/92/92 80/93/93 54/67/66 53/66/67
f 55/68/68 54/67/66 80/93/93 81/94/94
f 81/94/94 82/95/95 56/69/69 55/68/68
f 57/70/70 56/69/69 82/95/95 83/96/96
f 83/96/96 84/97/97 58/71/71 57/70/70
f 59/72/72 58/71/71 84/97/97 85/98/98
f 85/98/98 86/99/99 60/73/73 59/72/72
f 61/74/74 60/73/73 86/99/99 87/100/100
f 87/100/100 88/101/101 62/75/75 61/74/74
f 63/76/76 62/150/75 88/151/101 89/102/102
f 89/102/102 90/103/103 64/77/77 63/76/76
f 65/78/78 64/77/77 90/103/103 91/104/104
f 91/104/104 79/92/92 53/66/67 65/78/78
f 92/105/105 66/79/79 67/80/80 93/106/106
f 67/80/80 68/81/81 94/107/107 93/106/106
f 94/107/107 68/81/81 69/82/82 95/108/108
f 69/82/82 70/83/83 96/109/109 95/108/108
f 96/109/109 70/83/83 71/84/84 97/110/110
f 71/84/84 72/85/85 98/111/111 97/110/110
f 98/111/111 72/85/85 73/86/86 99/112/112
f 73/86/86 74/87/87 100/113/113 99/112/112
f 100/113/113 74/87/87 75/148/88 101/149/114
f 75/88/88 76/89/89 102/115/115 101/114/114
f 102/115/115 76/89/89 77/90/90 103/116/116
f 77/90/90 78/91/91 104/117/117 103/116/116
f 104/117/117 78/91/91 66/79/79 92/105/105
f 79/155/92 91/156/104 90/157/103 89/158/102 88/159/101 87/160/100 86/161/99 85/162/98 84/163/97 83/164/96 82/165/95 81/166/94 80/167/93
f 92/180/105 93/168/106 94/169/107 95/170/108 96/171/109 97/172/110 98/173/111 99/174/112 100/175/113 101/176/114 102/177/115 103/178/116 104/179/117
f 105/118/118 1/27/29 2/29/28 106/119/119
f 2/29/28 3/31/31 107/120/120 106/119/119
f 107/120/120 3/31/31 4/33/34 108/121/121
f 4/33/34 5/35/35 109/122/122 108/121/121
f 109/122/122 5/35/35 6/37/38 110/123/123
f 6/37/38 7/39/39 111/124/124 110/123/123
f 111/124/124 7/39/39 8/41/42 112/125/125
f 8/41/42 9/43/43 113/126/126 112/125/125
f 113/126/126 9/43/43 10/45/46 114/147/127
f 10/154/46 11/47/47 115/128/128 114/127/127
f 115/128/128 11/47/47 12/49/50 116/129/129
f 12/49/50 13/51/51 117/130/130 116/129/129
f 117/130/130 13/51/51 1/27/29 105/118/118
f 119/3/4 118/1/3 131/131/131 132/132/132
f 132/132/132 133/133/133 120/5/5 119/3/4
f 121/7/8 120/5/5 133/133/133 134/134/134
f 134/134/134 135/135/135 122/9/9 121/7/8
f 123/11/12 122/9/9 135/135/135 136/136/136
f 136/136/136 137/137/137 124/13/13 123/11/12
f 125/15/16 124/13/13 137/137/137 138/138/138
f 138/138/138 139/139/139 126/17/17 125/15/16
f 127/19/20 126/17/17 139/139/139 140/144/140
f 140/140/140 141/141/141 128/21/21 127/145/20
f 129/23/24 128/21/21 141/141/141 142/142/142
f 142/142/142 143/143/143 130/25/25 129/23/24
f 118/1/3 130/25/25 143/143/143 131/131/131
f 131/131/131 105/118/118 106/119/119 132/132/132
f 106/119/119 107/120/120 133/133/133 132/132/132
f 133/133/133 107/120/120 108/121/121 134/134/134
f 108/121/121 109/122/122 135/135/135 134/134/134
f 135/135/135 109/122/122 110/123/123 136/136/136
f 110/123/123 111/124/124 137/137/137 136/136/136
f 137/137/137 111/124/124 112/125/125 138/138/138
f 112/125/125 113/126/126 139/139/139 138/138/138
f 139/139/139 113/126/126 114/147/127 140/144/140
f 114/127/127 115/128/128 141/141/141 140/140/140
f 141/141/141 115/128/128 116/129/129 142/142/142
f 116/129/129 117/130/130 143/143/143 142/142/142
f 143/143/143 117/130/130 105/118/118 131/131/131
