# This file uses centimeters as units for non-parametric coordinates.

g default
v 0.150503 0.109347 0.892671
v 0.093016 0.030223 0.892671
v 0.048901 0.007745 0.892671
v -0.048901 0.007745 0.892671
v -0.093016 0.030223 0.892671
v -0.150503 0.109347 0.892671
v -0.158248 0.158248 0.892671
v -0.128025 0.251264 0.892671
v -0.093016 0.286273 0.892671
v -0.000000 0.316496 0.892671
v 0.128025 0.251264 0.892671
v 0.417796 0.109347 -0.823658
v 0.363461 0.030223 -0.842431
v 0.321765 0.007745 -0.856838
v 0.229324 0.007745 -0.888777
v 0.187628 0.030223 -0.903183
v 0.133293 0.109347 -0.921957
v 0.125973 0.158248 -0.924486
v 0.154538 0.251264 -0.914616
v 0.187628 0.286273 -0.903183
v 0.275545 0.316496 -0.872807
v 0.396551 0.251264 -0.830999
v 0.128383 0.116534 0.982081
v 0.079345 0.049039 0.982081
v 0.041714 0.029866 0.982081
v -0.041714 0.029866 0.982081
v -0.079345 0.049039 0.982081
v -0.128383 0.116534 0.982081
v -0.134989 0.158248 0.982081
v -0.109209 0.237593 0.982081
v -0.079345 0.267457 0.982081
v -0.000000 0.293237 0.982081
v 0.109209 0.237593 0.982081
v 0.426087 0.116534 -0.915390
v 0.379737 0.049039 -0.931404
v 0.344170 0.029866 -0.943693
v 0.265316 0.029866 -0.970938
v 0.229748 0.049039 -0.983227
v 0.183399 0.116534 -0.999241
v 0.177155 0.158248 -1.001399
v 0.201522 0.237593 -0.992980
v 0.229748 0.267457 -0.983227
v 0.304743 0.293237 -0.957316
v 0.407964 0.237593 -0.921651
v 0.087459 0.129831 1.041746
v 0.054053 0.083851 1.041746
v 0.028417 0.070789 1.041746
v -0.028417 0.070789 1.041746
v -0.054053 0.083851 1.041746
v -0.087459 0.129831 1.041746
v -0.091960 0.158248 1.041746
v -0.074397 0.212301 1.041746
v -0.054053 0.232645 1.041746
v -0.000000 0.250208 1.041746
v 0.074397 0.212301 1.041746
v 0.406892 0.129831 -0.985148
v 0.375317 0.083851 -0.996057
v 0.351087 0.070789 -1.004429
v 0.297368 0.070789 -1.022989
v 0.273138 0.083851 -1.031361
v 0.241564 0.129831 -1.042270
v 0.237310 0.158248 -1.043740
v 0.253909 0.212301 -1.038005
v 0.273139 0.232645 -1.031361
v 0.324228 0.250208 -1.013709
v 0.394546 0.212301 -0.989413
v 0.051522 0.141508 1.064561
v 0.031842 0.114421 1.064561
v 0.016740 0.106726 1.064561
v -0.016741 0.106726 1.064561
v -0.031842 0.114421 1.064561
v -0.051522 0.141508 1.064561
v -0.054173 0.158248 1.064561
v -0.043827 0.190090 1.064561
v -0.031842 0.202075 1.064561
v 0.000000 0.212421 1.064561
v 0.043827 0.190090 1.064561
v 0.380375 0.141508 -1.018447
v 0.361774 0.114421 -1.024874
v 0.347501 0.106726 -1.029806
v 0.315855 0.106726 -1.040740
v 0.301582 0.114421 -1.045671
v 0.282981 0.141508 -1.052098
v 0.280475 0.158248 -1.052964
v 0.290254 0.190090 -1.049585
v 0.301582 0.202075 -1.045671
v 0.331678 0.212421 -1.035273
v 0.373102 0.190090 -1.020960
v 0.150503 0.109347 0.470240
v 0.093016 0.030223 0.470240
v 0.048901 0.007745 0.470240
v -0.048901 0.007745 0.470240
v -0.093016 0.030223 0.470240
v -0.150503 0.109347 0.470240
v -0.158248 0.158248 0.470240
v -0.128025 0.251264 0.470240
v -0.093016 0.286273 0.470240
v -0.000000 0.316496 0.470240
v 0.128025 0.251264 0.470240
v 0.279844 0.109347 -0.424389
v 0.225509 0.030223 -0.443162
v 0.183813 0.007745 -0.457568
v 0.091372 0.007745 -0.489508
v 0.049677 0.030223 -0.503914
v -0.004659 0.109347 -0.522687
v -0.011979 0.158248 -0.525217
v 0.016587 0.251264 -0.515347
v 0.049677 0.286273 -0.503914
v 0.137593 0.316496 -0.473538
v 0.258599 0.251264 -0.431729
v 0.186692 0.109347 0.020289
v 0.130037 0.030223 0.010546
v 0.086561 0.007745 0.003068
v -0.009827 0.007745 -0.013509
v -0.053303 0.030223 -0.020986
v -0.109958 0.109347 -0.030730
v -0.117591 0.158248 -0.032042
v -0.087806 0.251264 -0.026920
v -0.053303 0.286273 -0.020986
v 0.038367 0.316496 -0.005220
v 0.164540 0.251264 0.016479
vt 0.706854 0.310159
vt 0.884558 0.291344
vt 0.705903 0.264215
vt 0.877684 0.255805
vt 0.706625 0.241506
vt 0.876185 0.238139
vt 0.709800 0.196660
vt 0.876772 0.202906
vt 0.711937 0.174454
vt 0.878810 0.185294
vt 0.716587 0.130221
vt 0.886487 0.149937
vt 0.718871 0.108098
vt 0.892201 0.132156
vt 0.722952 0.063489
vt 0.907482 0.096398
vt 0.724669 0.040914
vt 0.916878 0.078275
vt 0.727339 -0.005014
vt 0.936226 0.039688
vt 0.714817 0.379494
vt 0.905294 0.345171
vt 0.118040 0.291337
vt 0.077684 0.280588
vt 0.124717 0.255800
vt 0.083176 0.250684
vt 0.126133 0.238132
vt 0.084340 0.235823
vt 0.125400 0.202891
vt 0.083766 0.206178
vt 0.123274 0.185273
vt 0.082049 0.191358
vt 0.115386 0.149903
vt 0.075610 0.161602
vt 0.109540 0.132119
vt 0.070730 0.146661
vt 0.093948 0.096348
vt 0.057010 0.116994
vt 0.084403 0.078234
vt 0.047863 0.102556
vt 0.065232 0.039910
vt 0.024424 0.076408
vt 0.097718 0.345164
vt 0.060018 0.325501
vt 0.924877 0.280256
vt 0.919228 0.250409
vt 0.917984 0.235561
vt 0.918402 0.205921
vt 0.920037 0.191091
vt 0.926317 0.161282
vt 0.931127 0.146304
vt 0.944658 0.116565
vt 0.953661 0.102088
vt 0.975089 0.365940
vt 0.942792 0.325049
vt 0.045115 0.268805
vt 0.048827 0.245111
vt 0.049605 0.233212
vt 0.049126 0.209422
vt 0.047886 0.197563
vt 0.043377 0.174015
vt 0.040029 0.162388
vt 0.030605 0.139739
vt 0.024072 0.129152
vt 0.005223 0.113346
vt 0.033000 0.303364
vt 0.957493 0.268390
vt 0.953605 0.244785
vt 0.952733 0.232910
vt 0.953027 0.209123
vt 0.954174 0.197244
vt 0.958507 0.173609
vt 0.961793 0.161916
vt 0.971187 0.139171
vt 0.977680 0.128595
vt 0.994828 0.329430
vt 0.969704 0.302783
vt 0.026974 0.261080
vt 0.029607 0.241370
vt 0.030144 0.231350
vt 0.029669 0.211243
vt 0.028672 0.201256
vt 0.025212 0.181683
vt 0.022754 0.172222
vt 0.016342 0.154447
vt 0.012253 0.146460
vt 0.000913 0.135058
vt 0.018909 0.288687
vt 0.975863 0.261053
vt 0.972931 0.241452
vt 0.972246 0.231445
vt 0.972429 0.211336
vt 0.973276 0.201333
vt 0.976440 0.181650
vt 0.978758 0.172094
vt 0.984998 0.154086
vt 0.989138 0.146003
vt 0.999478 0.307812
vt 0.984247 0.288326
vt 0.294549 0.309767
vt 0.295774 0.264074
vt 0.295324 0.241414
vt 0.292755 0.196484
vt 0.290865 0.174162
vt 0.286440 0.129631
vt 0.284097 0.107353
vt 0.279516 0.062538
vt 0.277387 0.039953
vt 0.276031 0.447861
vt 0.287216 0.378757
vt 0.499521 0.312382
vt 0.500002 0.265151
vt 0.500385 0.241737
vt 0.501221 0.195413
vt 0.501584 0.172476
vt 0.502023 0.126920
vt 0.502054 0.104232
vt 0.501698 0.058867
vt 0.501320 0.036080
vt 0.501363 0.453400
vt 0.499886 0.383457
vt 0.500279 -0.009768
vt 0.727557 0.448375
vt 0.934019 0.401666
vt 0.273700 -0.005842
vt 0.995975 0.112918
vt 1.000603 0.134345
vt 0.008449 0.329862
vt 0.003512 0.308532
vt 0.976890 0.076417
vt 0.028031 0.365960
vt 0.068927 0.401987
vt 0.017428 0.591556
vt 0.103621 0.472921
vt 0.250262 0.472921
vt 0.320841 0.543500
vt 0.336455 0.591555
vt 0.320841 0.690140
vt 0.291141 0.731019
vt 0.202207 0.776334
vt 0.151678 0.776334
vt 0.062743 0.731019
vt 0.033043 0.690141
vt 0.320841 0.690141
vt 0.291141 0.731019
vt 0.202206 0.776334
vt 0.151677 0.776333
vt 0.062743 0.731019
vt 0.033043 0.690140
vt 0.017428 0.591555
vt 0.033043 0.543499
vt 0.103622 0.472920
vt 0.250263 0.472921
vt 0.336455 0.591556
vn 0.680769 -0.706827 0.192221
vn 0.945696 -0.157068 0.284584
vn 0.952202 -0.160503 0.259903
vn 0.676785 -0.712369 0.185720
vn 0.141665 -0.989142 0.039107
vn 0.161407 -0.986805 0.012776
vn -0.134867 -0.986805 -0.089590
vn -0.160523 -0.986073 -0.043495
vn -0.687486 -0.701636 -0.187268
vn -0.654229 -0.706827 -0.269035
vn -0.828375 -0.453232 -0.329205
vn -0.861185 -0.450309 -0.235758
vn -0.952818 0.155491 -0.260692
vn -0.919560 0.155880 -0.360710
vn -0.828006 0.453999 -0.329077
vn -0.861880 0.449263 -0.235213
vn -0.445560 0.886932 -0.121767
vn -0.415837 0.890075 -0.186668
vn 0.160039 0.987023 0.013131
vn 0.132134 0.990534 0.037182
vn 0.777108 0.587315 0.226194
vn 0.772167 0.599364 0.211001
vn 0.656758 -0.657234 0.369746
vn 0.706219 -0.706827 0.040635
vn 0.986784 -0.157067 0.039852
vn 0.919988 -0.146367 0.363592
vn 0.156730 -0.986805 0.040635
vn 0.145681 -0.917641 0.369746
vn -0.145681 -0.917641 0.369746
vn -0.156730 -0.986805 0.040635
vn -0.706219 -0.706827 0.040635
vn -0.656758 -0.657234 0.369745
vn -0.828017 -0.421517 0.369745
vn -0.890466 -0.453232 0.040635
vn -0.986940 0.155880 0.040635
vn -0.917747 0.145016 0.369746
vn -0.827711 0.422118 0.369746
vn -0.890075 0.453999 0.040635
vn -0.453999 0.890075 0.040635
vn -0.422118 0.827711 0.369746
vn 0.145088 0.920190 0.363592
vn 0.155553 0.987023 0.039852
vn 0.753308 0.547311 0.364661
vn 0.808370 0.587315 0.039986
vn 0.988286 -0.146368 -0.043220
vn 0.741497 -0.657235 -0.134998
vn 0.258441 -0.917641 -0.301900
vn -0.016947 -0.917641 -0.397049
vn -0.500004 -0.657235 -0.563950
vn -0.661873 -0.421517 -0.619877
vn -0.746683 0.145015 -0.649180
vn -0.661584 0.422117 -0.619777
vn -0.278227 0.827711 -0.487324
vn 0.255871 0.920190 -0.296277
vn 0.831094 0.547311 -0.098662
vn 0.537368 -0.534188 0.652594
vn 0.755340 -0.115651 0.645048
vn 0.116310 -0.748728 0.652594
vn -0.116310 -0.748728 0.652594
vn -0.537369 -0.534188 0.652594
vn -0.674099 -0.345995 0.652594
vn -0.748024 0.120753 0.652594
vn -0.676141 0.341987 0.652593
vn -0.341987 0.676141 0.652594
vn 0.123422 0.754109 0.645048
vn 0.617048 0.448312 0.646737
vn 0.924579 -0.115652 -0.363013
vn 0.721022 -0.534188 -0.441327
vn 0.323049 -0.748728 -0.578832
vn 0.103183 -0.748728 -0.654797
vn -0.294791 -0.534188 -0.792302
vn -0.424026 -0.345994 -0.836953
vn -0.493897 0.120752 -0.861095
vn -0.425955 0.341986 -0.837620
vn -0.110120 0.676141 -0.728496
vn 0.327307 0.754109 -0.569377
vn 0.794421 0.448312 -0.409771
vn 0.161152 -0.023284 0.986655
vn 0.070989 -0.069874 0.995027
vn 0.014803 -0.098502 0.995027
vn -0.014803 -0.098502 0.995027
vn -0.070989 -0.069874 0.995027
vn -0.088391 -0.045922 0.995027
vn -0.098256 0.016360 0.995027
vn -0.089107 0.044517 0.995027
vn -0.044518 0.089107 0.995027
vn 0.027654 0.160460 0.986655
vn 0.153507 0.111530 0.981833
vn 0.474526 -0.023283 -0.879934
vn 0.392040 -0.069874 -0.917291
vn 0.338934 -0.098502 -0.935639
vn 0.310952 -0.098502 -0.945308
vn 0.257846 -0.069874 -0.963656
vn 0.241398 -0.045922 -0.969339
vn 0.232074 0.016360 -0.972560
vn 0.240721 0.044518 -0.969573
vn 0.282866 0.089107 -0.955011
vn 0.348348 0.160460 -0.923530
vn 0.465726 0.111530 -0.877873
vn 0.986387 -0.159150 0.041378
vn 0.703150 -0.710441 0.029221
vn 0.149764 -0.988703 0.006172
vn -0.163375 -0.986538 -0.007220
vn -0.710584 -0.702921 -0.031176
vn -0.891670 -0.451023 -0.038761
vn -0.986883 0.155593 -0.043043
vn -0.892006 0.450331 -0.039086
vn -0.459492 0.887959 -0.019904
vn 0.142473 0.989784 0.005487
vn 0.802260 0.596025 0.033666
vn 0.976869 -0.160727 0.141044
vn 0.694572 -0.712320 0.100848
vn 0.144669 -0.989254 0.021155
vn -0.165899 -0.985848 -0.024123
vn -0.706011 -0.700625 -0.103311
vn -0.883849 -0.449345 -0.130003
vn -0.977377 0.155103 -0.143798
vn -0.884388 0.448349 -0.129772
vn -0.458435 0.886188 -0.067138
vn 0.132699 0.990963 0.019570
vn 0.790946 0.601091 0.114431
s 1
g cucumber_collider
f 13/4/1 12/2/2 100/1/3 101/3/4
f 101/3/4 102/5/5 14/6/6 13/4/1
f 15/8/7 14/6/6 102/5/5 103/7/8
f 103/7/8 104/9/9 16/10/10 15/8/7
f 17/12/11 16/10/10 104/9/9 105/11/12
f 105/11/12 106/13/13 18/14/14 17/12/11
f 19/16/15 18/14/14 106/13/13 107/15/16
f 107/15/16 108/17/17 20/18/18 19/16/15
f 21/20/19 20/18/18 108/17/17 109/19/20
f 22/22/21 21/124/19 109/123/20 110/21/22
f 12/2/2 22/22/21 110/21/22 100/1/3
f 24/26/23 2/25/24 1/23/25 23/24/26
f 3/27/27 2/25/24 24/26/23 25/28/28
f 26/30/29 4/29/30 3/27/27 25/28/28
f 5/31/31 4/29/30 26/30/29 27/32/32
f 28/34/33 6/33/34 5/31/31 27/32/32
f 7/35/35 6/33/34 28/34/33 29/36/36
f 30/38/37 8/37/38 7/35/35 29/36/36
f 9/39/39 8/37/38 30/38/37 31/40/40
f 32/42/41 10/41/42 9/39/39 31/40/40
f 33/44/43 11/43/44 10/132/42 32/131/41
f 23/24/26 1/23/25 11/43/44 33/44/43
f 34/45/45 12/2/2 13/4/1 35/46/46
f 13/4/1 14/6/6 36/47/47 35/46/46
f 36/47/47 14/6/6 15/8/7 37/48/48
f 15/8/7 16/10/10 38/49/49 37/48/48
f 38/49/49 16/10/10 17/12/11 39/50/50
f 17/12/11 18/14/14 40/51/51 39/50/50
f 40/51/51 18/14/14 19/16/15 41/52/52
f 19/16/15 20/18/18 42/53/53 41/52/52
f 42/53/53 20/18/18 21/20/19 43/130/54
f 43/54/54 21/124/19 22/22/21 44/55/55
f 44/55/55 22/22/21 12/2/2 34/45/45
f 46/57/56 24/26/23 23/24/26 45/56/57
f 25/28/28 24/26/23 46/57/56 47/58/58
f 48/59/59 26/30/29 25/28/28 47/58/58
f 27/32/32 26/30/29 48/59/59 49/60/60
f 50/61/61 28/34/33 27/32/32 49/60/60
f 29/36/36 28/34/33 50/61/61 51/62/62
f 52/63/63 30/38/37 29/36/36 51/62/62
f 31/40/40 30/38/37 52/63/63 53/64/64
f 54/65/65 32/42/41 31/40/40 53/64/64
f 55/66/66 33/44/43 32/131/41 54/128/65
f 45/56/57 23/24/26 33/44/43 55/66/66
f 56/67/67 34/45/45 35/46/46 57/68/68
f 35/46/46 36/47/47 58/69/69 57/68/68
f 58/69/69 36/47/47 37/48/48 59/70/70
f 37/48/48 38/49/49 60/71/71 59/70/70
f 60/71/71 38/49/49 39/50/50 61/72/72
f 39/50/50 40/51/51 62/73/73 61/72/72
f 62/73/73 40/51/51 41/52/52 63/74/74
f 41/52/52 42/53/53 64/75/75 63/74/74
f 64/75/75 42/53/53 43/130/54 65/126/76
f 65/76/76 43/54/54 44/55/55 66/77/77
f 66/77/77 44/55/55 34/45/45 56/67/67
f 67/78/78 68/79/79 46/57/56 45/56/57
f 47/58/58 46/57/56 68/79/79 69/80/80
f 69/80/80 70/81/81 48/59/59 47/58/58
f 49/60/60 48/59/59 70/81/81 71/82/82
f 71/82/82 72/83/83 50/61/61 49/60/60
f 51/62/62 50/61/61 72/83/83 73/84/84
f 73/84/84 74/85/85 52/63/63 51/62/62
f 53/64/64 52/63/63 74/85/85 75/86/86
f 75/86/86 76/87/87 54/65/65 53/64/64
f 76/129/87 77/88/88 55/66/66 54/128/65
f 77/88/88 67/78/78 45/56/57 55/66/66
f 78/89/89 56/67/67 57/68/68 79/90/90
f 57/68/68 58/69/69 80/91/91 79/90/90
f 80/91/91 58/69/69 59/70/70 81/92/92
f 59/70/70 60/71/71 82/93/93 81/92/92
f 82/93/93 60/71/71 61/72/72 83/94/94
f 61/72/72 62/73/73 84/95/95 83/94/94
f 84/95/95 62/73/73 63/74/74 85/96/96
f 63/74/74 64/75/75 86/97/97 85/96/96
f 86/97/97 64/75/75 65/126/76 87/127/98
f 87/98/98 65/76/76 66/77/77 88/99/99
f 88/99/99 66/77/77 56/67/67 78/89/89
f 67/133/78 77/134/88 76/135/87 75/136/86 74/137/85 73/138/84 72/139/83 71/140/82 70/141/81 69/142/80 68/143/79
f 78/154/89 79/144/90 80/145/91 81/146/92 82/147/93 83/148/94 84/149/95 85/150/96 86/151/97 87/152/98 88/153/99
f 89/100/100 1/23/25 2/25/24 90/101/101
f 2/25/24 3/27/27 91/102/102 90/101/101
f 91/102/102 3/27/27 4/29/30 92/103/103
f 4/29/30 5/31/31 93/104/104 92/103/103
f 93/104/104 5/31/31 6/33/34 94/105/105
f 6/33/34 7/35/35 95/106/106 94/105/105
f 95/106/106 7/35/35 8/37/38 96/107/107
f 8/37/38 9/39/39 97/108/108 96/107/107
f 97/108/108 9/39/39 10/41/42 98/125/109
f 98/109/109 10/132/42 11/43/44 99/110/110
f 99/110/110 11/43/44 1/23/25 89/100/100
f 101/3/4 100/1/3 111/111/111 112/112/112
f 112/112/112 113/113/113 102/5/5 101/3/4
f 103/7/8 102/5/5 113/113/113 114/114/114
f 114/114/114 115/115/115 104/9/9 103/7/8
f 105/11/12 104/9/9 115/115/115 116/116/116
f 116/116/116 117/117/117 106/13/13 105/11/12
f 107/15/16 106/13/13 117/117/117 118/118/118
f 118/118/118 119/119/119 108/17/17 107/15/16
f 109/19/20 108/17/17 119/119/119 120/122/120
f 110/21/22 109/123/20 120/120/120 121/121/121
f 100/1/3 110/21/22 121/121/121 111/111/111
f 111/111/111 89/100/100 90/101/101 112/112/112
f 90/101/101 91/102/102 113/113/113 112/112/112
f 113/113/113 91/102/102 92/103/103 114/114/114
f 92/103/103 93/104/104 115/115/115 114/114/114
f 115/115/115 93/104/104 94/105/105 116/116/116
f 94/105/105 95/106/106 117/117/117 116/116/116
f 117/117/117 95/106/106 96/107/107 118/118/118
f 96/107/107 97/108/108 119/119/119 118/118/118
f 119/119/119 97/108/108 98/125/109 120/122/120
f 120/120/120 98/109/109 99/110/110 121/121/121
f 121/121/121 99/110/110 89/100/100 111/111/111
