# This file uses centimeters as units for non-parametric coordinates.

g default
v 0.233348 0.055990 -0.075819
v 0.144217 0.055990 -0.198498
v 0.075819 0.055990 -0.233348
v -0.075819 0.055990 -0.233348
v -0.233348 0.055990 -0.075819
v -0.245357 0.055990 0.000000
v -0.198498 0.055990 0.144217
v -0.144217 0.055990 0.198498
v -0.000000 0.055990 0.245357
v 0.075819 0.055990 0.233348
v 0.198498 0.055990 0.144217
v 0.245357 0.055990 0.000000
v 0.219055 0.609254 -0.071175
v 0.135383 0.609254 -0.186339
v 0.071175 0.609254 -0.219055
v -0.071175 0.609254 -0.219055
v -0.219055 0.609254 -0.071175
v -0.230328 0.609254 0.000000
v -0.186339 0.609254 0.135383
v -0.135383 0.609254 0.186339
v -0.000000 0.609254 0.230328
v 0.071175 0.609254 0.219055
v 0.186339 0.609254 0.135383
v 0.230328 0.609254 0.000000
v 0.180389 0.815404 -0.058612
v 0.111487 0.815404 -0.153448
v 0.058612 0.815404 -0.180389
v -0.058612 0.815404 -0.180389
v -0.180389 0.815404 -0.058612
v -0.189672 0.815404 -0.000000
v -0.153448 0.815404 0.111487
v -0.111487 0.815404 0.153448
v -0.000000 0.815404 0.189672
v 0.058612 0.815404 0.180389
v 0.153448 0.815404 0.111487
v 0.189672 0.815404 -0.000000
v 0.147745 0.875274 -0.048005
v 0.091311 0.875274 -0.125679
v 0.048005 0.875274 -0.147745
v -0.048005 0.875274 -0.147745
v -0.147745 0.875274 -0.048005
v -0.155348 0.875274 -0.000000
v -0.125679 0.875274 0.091311
v -0.091311 0.875274 0.125679
v -0.000000 0.875274 0.155348
v 0.048005 0.875274 0.147744
v 0.125679 0.875274 0.091311
v 0.155348 0.875274 -0.000000
v 0.200989 0.006893 -0.065305
v 0.124218 0.006893 -0.170971
v 0.065305 0.006893 -0.200989
v -0.065305 0.006893 -0.200989
v -0.200989 0.006893 -0.065305
v -0.211332 0.006893 -0.000000
v -0.170971 0.006893 0.124218
v -0.124218 0.006893 0.170971
v -0.000000 0.006893 0.211332
v 0.065305 0.006893 0.200989
v 0.170971 0.006893 0.124218
v 0.211332 0.006893 -0.000000
v 0.066376 0.924638 -0.021567
v 0.041023 0.924638 -0.056463
v 0.021567 0.924638 -0.066376
v -0.021567 0.924638 -0.066376
v -0.066376 0.924638 -0.021567
v -0.069792 0.924638 -0.000000
v -0.056463 0.924638 0.041023
v -0.041023 0.924638 0.056463
v -0.000000 0.924638 0.069792
v 0.021567 0.924638 0.066376
v 0.056463 0.924638 0.041023
v 0.069792 0.924638 -0.000000
v 0.071824 0.955371 -0.023337
v 0.044390 0.955371 -0.061098
v 0.023337 0.955371 -0.071824
v -0.023337 0.955371 -0.071824
v -0.071824 0.955371 -0.023337
v -0.075521 0.955371 -0.000000
v -0.061097 0.955371 0.044390
v -0.044390 0.955371 0.061097
v -0.000000 0.955371 0.075521
v 0.023337 0.955371 0.071824
v 0.061097 0.955371 0.044390
v 0.075521 0.955371 -0.000000
v 0.230928 0.359722 -0.075033
v 0.142722 0.359722 -0.196439
v 0.075033 0.359722 -0.230928
v -0.075033 0.359722 -0.230928
v -0.230928 0.359722 -0.075033
v -0.242812 0.359722 0.000000
v -0.196439 0.359722 0.142721
v -0.142721 0.359722 0.196439
v -0.000000 0.359722 0.242812
v 0.075033 0.359722 0.230928
v 0.196439 0.359722 0.142721
v 0.242812 0.359722 0.000000
v 0.075850 1.041367 -0.024645
v 0.046878 1.041367 -0.064522
v 0.024645 1.041367 -0.075850
v -0.024645 1.041367 -0.075850
v -0.075850 1.041367 -0.024645
v -0.079754 1.041367 -0.000000
v -0.064522 1.041367 0.046878
v -0.046878 1.041367 0.064522
v -0.000000 1.041367 0.079753
v 0.024645 1.041367 0.075850
v 0.064522 1.041367 0.046878
v 0.079753 1.041367 -0.000000
v 0.040821 1.054340 -0.013264
v 0.025229 1.054340 -0.034725
v 0.013264 1.054340 -0.040821
v -0.013264 1.054340 -0.040821
v -0.040821 1.054340 -0.013264
v -0.042922 1.054340 -0.000000
v -0.034725 1.054340 0.025229
v -0.025229 1.054340 0.034725
v -0.000000 1.054340 0.042922
v 0.013264 1.054340 0.040821
v 0.034725 1.054340 0.025229
v 0.042922 1.054340 -0.000000
v 0.026038 1.128795 -0.004124
v 0.011968 1.128795 -0.023490
v -0.008248 1.128795 -0.025385
v -0.026038 1.128795 -0.004124
v -0.018641 1.128795 0.018641
v 0.004124 1.128795 0.026038
v 0.021594 1.128795 0.015689
v 0.000273 1.172764 0.000536
vt 0.775162 0.295351
vt 0.733248 0.442976
vt 0.868246 0.323045
vt 0.811467 0.480715
vt 0.097875 0.342077
vt 0.163845 0.506916
vt 0.238754 0.297875
vt 0.282195 0.444878
vt 0.283998 0.285732
vt 0.320259 0.429884
vt 0.373416 0.267199
vt 0.395497 0.408286
vt 0.417886 0.261206
vt 0.432796 0.401586
vt 0.506720 0.256109
vt 0.507517 0.395962
vt 0.551139 0.257055
vt 0.544892 0.397143
vt 0.640117 0.265961
vt 0.619650 0.407375
vt 0.729762 0.283633
vt 0.695049 0.428315
vt 0.679223 0.556220
vt 0.732771 0.596493
vt 0.758160 0.622608
vt 0.258926 0.624695
vt 0.337439 0.557405
vt 0.365110 0.542269
vt 0.421590 0.521115
vt 0.450232 0.514535
vt 0.508196 0.509092
vt 0.537159 0.510350
vt 0.594859 0.520520
vt 0.651537 0.541318
vt 0.654732 0.593882
vt 0.698590 0.628556
vt 0.717716 0.651004
vt 0.299645 0.652618
vt 0.362326 0.594751
vt 0.385659 0.581802
vt 0.433909 0.563327
vt 0.458650 0.557615
vt 0.508389 0.552875
vt 0.533293 0.554004
vt 0.582918 0.562866
vt 0.631343 0.580985
vt 0.807525 0.102736
vt 0.814661 0.064451
vt 0.905280 0.123820
vt 0.911896 0.085340
vt 0.057794 0.138176
vt 0.052937 0.099708
vt 0.204339 0.105840
vt 0.196761 0.067738
vt 0.253544 0.095407
vt 0.246482 0.057301
vt 0.353238 0.078444
vt 0.348498 0.040100
vt 0.403733 0.072647
vt 0.400508 0.034161
vt 0.505725 0.067687
vt 0.505479 0.029129
vt 0.556833 0.068531
vt 0.558002 0.029981
vt 0.658285 0.076940
vt 0.662580 0.038483
vt 0.758185 0.092877
vt 0.764797 0.054551
vt 0.611946 0.645868
vt 0.640029 0.665570
vt 0.651705 0.676658
vt 0.366092 0.677859
vt 0.405064 0.647012
vt 0.420724 0.638693
vt 0.454517 0.626292
vt 0.472222 0.622410
vt 0.508299 0.619213
vt 0.526418 0.619886
vt 0.562180 0.625805
vt 0.596155 0.637753
vt 0.597603 0.668761
vt 0.622077 0.687038
vt 0.632872 0.697883
vt 0.384687 0.699043
vt 0.419824 0.669577
vt 0.433318 0.662188
vt 0.462334 0.651479
vt 0.477529 0.648199
vt 0.508574 0.645501
vt 0.524164 0.646096
vt 0.554882 0.651086
vt 0.584008 0.661529
vt 0.319092 0.841055
vt 0.308574 0.880901
vt 0.254327 0.941600
vt 0.174761 0.958821
vt 0.134915 0.948303
vt 0.772742 0.917866
vt 0.074216 0.894056
vt 0.059304 0.855637
vt 0.067513 0.774644
vt 0.089830 0.739999
vt 0.805233 0.901455
vt 0.795465 0.892640
vt 0.783717 0.886716
vt 0.201326 0.696724
vt 0.768231 0.883685
vt 0.752528 0.885446
vt 0.275818 0.729559
vt 0.735994 0.893628
vt 0.301871 0.761490
vt 0.813371 0.914992
vt 0.834690 0.861827
vt 0.820053 0.850459
vt 0.803560 0.841960
vt 0.794784 0.838918
vt 0.776615 0.835241
vt 0.767367 0.834705
vt 0.749011 0.836264
vt 0.740089 0.838296
vt 0.715597 0.849303
vt 0.855761 0.891491
vt 0.851857 0.883312
vt 0.841142 0.868444
vt 0.854572 0.845663
vt 0.888975 0.807333
vt 0.835537 0.829913
vt 0.862739 0.786090
vt 0.814127 0.818459
vt 0.833030 0.770151
vt 0.802806 0.814367
vt 0.817153 0.764493
vt 0.779159 0.809595
vt 0.784006 0.758114
vt 0.767069 0.808955
vt 0.767068 0.757439
vt 0.742444 0.811437
vt 0.733445 0.760837
vt 0.730125 0.814678
vt 0.717125 0.764899
vt 0.694630 0.834698
vt 0.673066 0.787642
vt 0.881332 0.891274
vt 0.925102 0.862861
vt 0.876679 0.877903
vt 0.918480 0.847741
vt 0.862996 0.855186
vt 0.900419 0.819682
vt 0.916706 0.338126
vt 0.852268 0.503901
vt 0.954575 0.133534
vt 0.958998 0.094634
vn 0.702515 0.108855 -0.703295
vn 0.885962 0.108855 -0.450801
vn 0.890779 0.026406 -0.453670
vn 0.706732 0.026406 -0.706989
vn 0.156559 0.026406 -0.987316
vn 0.156049 0.108855 -0.981733
vn -0.450454 0.108106 -0.886230
vn -0.453546 0.026355 -0.890843
vn -0.805327 0.104280 -0.583588
vn -0.808992 0.025388 -0.587270
vn -0.987372 0.026406 0.156201
vn -0.981905 0.108855 0.154961
vn -0.885462 0.108855 0.451784
vn -0.890613 0.026406 0.453994
vn -0.453994 0.026406 0.890614
vn -0.451783 0.108855 0.885462
vn -0.154961 0.108855 0.981905
vn -0.156201 0.026406 0.987372
vn 0.453671 0.026406 0.890778
vn 0.450802 0.108855 0.885962
vn 0.804117 0.109892 0.584225
vn 0.808728 0.026714 0.587575
vn 0.981905 0.108854 0.154961
vn 0.987372 0.026406 0.156201
vn 0.862099 0.251493 -0.439928
vn 0.684799 0.251493 -0.683960
vn 0.150820 0.251493 -0.956036
vn -0.440684 0.248369 -0.862618
vn -0.784586 0.240096 -0.571645
vn -0.955850 0.251493 0.151993
vn -0.862638 0.251493 0.438870
vn -0.438870 0.251493 0.862638
vn -0.151993 0.251493 0.955850
vn 0.439928 0.251493 0.862099
vn 0.782645 0.253245 0.568625
vn 0.955850 0.251493 0.151993
vn 0.659366 0.672513 -0.336101
vn 0.523406 0.672513 -0.523233
vn 0.115654 0.672513 -0.730993
vn -0.341433 0.659332 -0.669855
vn -0.616636 0.647155 -0.448274
vn -0.730955 0.672513 0.115896
vn -0.659477 0.672513 0.335883
vn -0.335883 0.672513 0.659476
vn -0.115896 0.672513 0.730954
vn 0.336101 0.672513 0.659366
vn 0.598983 0.672184 0.435187
vn 0.730954 0.672513 0.115896
vn 0.733425 -0.564492 -0.378731
vn 0.586836 -0.564492 -0.580493
vn 0.704495 -0.075147 -0.705719
vn 0.888880 -0.075147 -0.451935
vn 0.156847 -0.075147 -0.984760
vn 0.124695 -0.564492 -0.815966
vn -0.381666 -0.564243 -0.732094
vn -0.451445 -0.071119 -0.889460
vn -0.670528 -0.548830 -0.499177
vn -0.808223 -0.069114 -0.584807
vn -0.985031 -0.075147 0.155137
vn -0.814563 -0.564492 0.133555
vn -0.737496 -0.564492 0.370740
vn -0.888094 -0.075147 0.453478
vn -0.453478 -0.075147 0.888094
vn -0.370739 -0.564492 0.737496
vn -0.133555 -0.564492 0.814562
vn -0.155137 -0.075147 0.985031
vn 0.451936 -0.075147 0.888880
vn 0.378732 -0.564492 0.733424
vn 0.664952 -0.569595 0.483116
vn 0.806768 -0.074518 0.586151
vn 0.814562 -0.564492 0.133555
vn 0.985031 -0.075147 0.155138
vn 0.000000 -1.000000 0.000000
vn 0.000000 -1.000000 0.000000
vn 0.000000 -1.000000 0.000000
vn 0.000000 -1.000000 0.000000
vn 0.000000 -1.000000 0.000000
vn 0.000000 -1.000000 0.000000
vn 0.000000 -1.000000 0.000000
vn 0.000000 -1.000000 0.000000
vn 0.000000 -1.000000 0.000000
vn 0.000000 -1.000000 0.000000
vn 0.000000 -1.000000 0.000000
vn 0.000000 -1.000000 0.000000
vn 0.359864 0.863176 -0.354153
vn 0.448023 0.863177 -0.232812
vn 0.074992 0.863176 -0.499302
vn -0.235551 0.862962 -0.447003
vn -0.416115 0.853656 -0.313239
vn -0.498039 0.863176 0.082971
vn -0.451691 0.863176 0.225615
vn -0.225615 0.863176 0.451691
vn -0.082971 0.863176 0.498039
vn 0.232812 0.863176 0.448024
vn 0.404316 0.866163 0.293753
vn 0.498038 0.863176 0.082972
vn 0.877143 -0.181115 -0.444766
vn 0.875465 -0.181009 -0.448103
vn 0.696706 -0.181010 -0.694144
vn 0.694051 -0.181115 -0.696772
vn 0.152061 -0.181010 -0.971655
vn 0.155747 -0.181115 -0.971051
vn -0.449309 -0.180971 -0.874855
vn -0.443385 -0.181158 -0.877833
vn -0.794295 -0.174331 -0.581983
vn -0.799100 -0.174794 -0.575228
vn -0.971088 -0.181009 0.155639
vn -0.971653 -0.181114 0.151947
vn -0.877109 -0.181009 0.444877
vn -0.875396 -0.181114 0.448196
vn -0.444877 -0.181009 0.877109
vn -0.448196 -0.181114 0.875396
vn -0.155639 -0.181009 0.971088
vn -0.151947 -0.181115 0.971653
vn 0.448105 -0.181010 0.875464
vn 0.444768 -0.181115 0.877142
vn 0.795319 -0.183243 0.577832
vn 0.795319 -0.183243 0.577832
vn 0.971088 -0.181009 0.155639
vn 0.971653 -0.181115 0.151947
vn 0.890188 -0.048562 -0.452998
vn 0.889727 -0.048554 -0.453904
vn 0.706629 -0.048554 -0.705917
vn 0.705910 -0.048562 -0.706635
vn 0.155752 -0.048554 -0.986602
vn 0.156755 -0.048562 -0.986443
vn -0.454247 -0.048551 -0.889552
vn -0.452644 -0.048565 -0.890368
vn -0.807479 -0.046744 -0.588041
vn -0.808800 -0.046778 -0.586221
vn -0.986444 -0.048554 0.156748
vn -0.986603 -0.048562 0.155744
vn -0.890184 -0.048554 0.453007
vn -0.889722 -0.048562 0.453912
vn -0.453006 -0.048554 0.890184
vn -0.453911 -0.048562 0.889723
vn -0.156748 -0.048554 0.986444
vn -0.155745 -0.048562 0.986603
vn 0.453904 -0.048554 0.889727
vn 0.452999 -0.048562 0.890188
vn 0.808039 -0.049162 0.587074
vn 0.808039 -0.049162 0.587074
vn 0.986444 -0.048554 0.156748
vn 0.986603 -0.048562 0.155745
vn 0.280963 0.937758 -0.204131
vn 0.280963 0.937758 -0.204131
vn 0.280963 0.937758 -0.204131
vn 0.280963 0.937758 -0.204131
vn 0.152489 0.941902 -0.299280
vn 0.152489 0.941902 -0.299280
vn 0.152489 0.941902 -0.299280
vn 0.152489 0.941902 -0.299280
vn 0.000000 0.937758 -0.347290
vn 0.000000 0.937758 -0.347290
vn 0.000000 0.937758 -0.347290
vn 0.000000 0.937758 -0.347290
vn -0.259946 0.929976 -0.259947
vn -0.259946 0.929976 -0.259947
vn -0.259946 0.929976 -0.259947
vn -0.259946 0.929976 -0.259947
vn -0.331752 0.941902 -0.052543
vn -0.331752 0.941902 -0.052543
vn -0.331752 0.941902 -0.052543
vn -0.331752 0.941902 -0.052543
vn -0.330292 0.937758 0.107317
vn -0.330292 0.937758 0.107317
vn -0.330292 0.937758 0.107317
vn -0.330292 0.937758 0.107317
vn -0.237508 0.941902 0.237509
vn -0.237508 0.941902 0.237509
vn -0.237508 0.941902 0.237509
vn -0.237508 0.941902 0.237509
vn -0.107319 0.937758 0.330292
vn -0.107319 0.937758 0.330292
vn -0.107319 0.937758 0.330292
vn -0.107319 0.937758 0.330292
vn 0.052544 0.941903 0.331749
vn 0.052544 0.941903 0.331749
vn 0.052544 0.941903 0.331749
vn 0.052544 0.941903 0.331749
vn 0.204131 0.937758 0.280964
vn 0.204131 0.937758 0.280964
vn 0.204131 0.937758 0.280964
vn 0.204131 0.937758 0.280964
vn 0.330292 0.937758 0.107319
vn 0.330292 0.937758 0.107319
vn 0.330292 0.937758 0.107319
vn 0.330292 0.937758 0.107319
vn 0.331752 0.941903 -0.052538
vn 0.331752 0.941903 -0.052538
vn 0.331752 0.941903 -0.052538
vn 0.331752 0.941903 -0.052538
vn 0.951012 0.243074 -0.191027
vn 0.837965 0.227279 -0.496144
vn 0.730806 0.227279 -0.643636
vn 0.475555 0.243074 -0.845436
vn 0.128360 0.216291 -0.967854
vn -0.437996 0.228218 -0.869526
vn -0.445344 0.227987 -0.865847
vn -0.775503 0.210893 -0.595079
vn -0.926405 0.245567 -0.285432
vn -0.950269 0.227278 0.212916
vn -0.893932 0.227278 0.386303
vn -0.684269 0.252094 0.684269
vn -0.386303 0.227279 0.893932
vn -0.212916 0.227278 0.950269
vn 0.112202 0.243074 0.963497
vn 0.465045 0.216291 0.858459
vn 0.787845 0.227277 0.572403
vn 0.787845 0.227277 0.572403
vn 0.960149 0.216291 0.177007
vn -0.097296 0.994725 -0.032489
vn 0.835550 0.511007 -0.201811
vn 0.443262 0.517749 -0.731748
vn -0.376493 0.523550 -0.764296
vn -0.832637 0.518803 -0.193804
vn -0.609939 0.511581 0.605194
vn 0.068454 0.505017 0.860391
vn 0.696096 0.511244 0.504063
s 1
g sriracha_bottle
f 14/4/1 13/2/2 85/1/3 86/3/4
f 86/3/4 87/149/5 15/150/6 14/4/1
f 16/6/7 15/150/6 87/149/5 88/5/8
f 17/8/9 16/6/7 88/5/8 89/7/10
f 89/7/10 90/9/11 18/10/12 17/8/9
f 19/12/13 18/10/12 90/9/11 91/11/14
f 91/11/14 92/13/15 20/14/16 19/12/13
f 21/16/17 20/14/16 92/13/15 93/15/18
f 93/15/18 94/17/19 22/18/20 21/16/17
f 23/20/21 22/18/20 94/17/19 95/19/22
f 24/22/23 23/20/21 95/19/22 96/21/24
f 96/21/24 85/1/3 13/2/2 24/22/23
f 25/23/25 13/2/2 14/4/1 26/24/26
f 14/4/1 15/150/6 27/25/27 26/24/26
f 27/25/27 15/150/6 16/6/7 28/26/28
f 28/26/28 16/6/7 17/8/9 29/27/29
f 17/8/9 18/10/12 30/28/30 29/27/29
f 30/28/30 18/10/12 19/12/13 31/29/31
f 19/12/13 20/14/16 32/30/32 31/29/31
f 32/30/32 20/14/16 21/16/17 33/31/33
f 21/16/17 22/18/20 34/32/34 33/31/33
f 34/32/34 22/18/20 23/20/21 35/33/35
f 35/33/35 23/20/21 24/22/23 36/34/36
f 24/22/23 13/2/2 25/23/25 36/34/36
f 37/35/37 25/23/25 26/24/26 38/36/38
f 26/24/26 27/25/27 39/37/39 38/36/38
f 39/37/39 27/25/27 28/26/28 40/38/40
f 40/38/40 28/26/28 29/27/29 41/39/41
f 29/27/29 30/28/30 42/40/42 41/39/41
f 42/40/42 30/28/30 31/29/31 43/41/43
f 31/29/31 32/30/32 44/42/44 43/41/43
f 44/42/44 32/30/32 33/31/33 45/43/45
f 33/31/33 34/32/34 46/44/46 45/43/45
f 46/44/46 34/32/34 35/33/35 47/45/47
f 47/45/47 35/33/35 36/34/36 48/46/48
f 36/34/36 25/23/25 37/35/37 48/46/48
f 49/48/49 50/50/50 2/49/51 1/47/52
f 3/151/53 2/49/51 50/50/50 51/152/54
f 51/152/54 52/52/55 4/51/56 3/151/53
f 52/52/55 53/54/57 5/53/58 4/51/56
f 6/55/59 5/53/58 53/54/57 54/56/60
f 54/56/60 55/58/61 7/57/62 6/55/59
f 8/59/63 7/57/62 55/58/61 56/60/64
f 56/60/64 57/62/65 9/61/66 8/59/63
f 10/63/67 9/61/66 57/62/65 58/64/68
f 58/64/68 59/66/69 11/65/70 10/63/67
f 59/66/69 60/68/71 12/67/72 11/65/70
f 1/47/52 12/67/72 60/68/71 49/48/49
s off
f 49/93/73 60/94/74 59/95/75 58/96/76 57/97/77 56/99/78 55/100/79 54/101/80 53/102/81 52/106/82 51/109/83 50/111/84
s 1
f 38/36/38 62/70/85 61/69/86 37/35/37
f 39/37/39 63/71/87 62/70/85 38/36/38
f 40/38/40 64/72/88 63/71/87 39/37/39
f 41/39/41 65/73/89 64/72/88 40/38/40
f 42/40/42 66/74/90 65/73/89 41/39/41
f 43/41/43 67/75/91 66/74/90 42/40/42
f 44/42/44 68/76/92 67/75/91 43/41/43
f 45/43/45 69/77/93 68/76/92 44/42/44
f 46/44/46 70/78/94 69/77/93 45/43/45
f 47/45/47 71/79/95 70/78/94 46/44/46
f 48/46/48 72/80/96 71/79/95 47/45/47
f 37/35/37 61/69/86 72/80/96 48/46/48
s 3
f 73/81/97 61/69/98 62/70/99 74/82/100
f 62/70/99 63/71/101 75/83/102 74/82/100
f 75/83/102 63/71/101 64/72/103 76/84/104
f 76/84/104 64/72/103 65/73/105 77/85/106
f 65/73/105 66/74/107 78/86/108 77/85/106
f 78/86/108 66/74/107 67/75/109 79/87/110
f 67/75/109 68/76/111 80/88/112 79/87/110
f 80/88/112 68/76/111 69/77/113 81/89/114
f 69/77/113 70/78/115 82/90/116 81/89/114
f 82/90/116 70/78/115 71/79/117 83/91/118
f 83/91/118 71/79/117 72/80/119 84/92/120
f 72/80/119 61/69/98 73/81/97 84/92/120
s 1
f 85/1/3 1/47/52 2/49/51 86/3/4
f 2/49/51 3/151/53 87/149/5 86/3/4
f 87/149/5 3/151/53 4/51/56 88/5/8
f 88/5/8 4/51/56 5/53/58 89/7/10
f 5/53/58 6/55/59 90/9/11 89/7/10
f 90/9/11 6/55/59 7/57/62 91/11/14
f 7/57/62 8/59/63 92/13/15 91/11/14
f 92/13/15 8/59/63 9/61/66 93/15/18
f 9/61/66 10/63/67 94/17/19 93/15/18
f 94/17/19 10/63/67 11/65/70 95/19/22
f 95/19/22 11/65/70 12/67/72 96/21/24
f 12/67/72 1/47/52 85/1/3 96/21/24
s 4
f 97/147/121 73/148/122 74/146/123 98/145/124
f 74/146/123 75/144/125 99/143/126 98/145/124
f 99/143/126 75/144/125 76/142/127 100/141/128
f 100/141/128 76/142/127 77/140/129 101/139/130
f 77/140/129 78/138/131 102/137/132 101/139/130
f 102/137/132 78/138/131 79/136/133 103/135/134
f 79/136/133 80/134/135 104/133/136 103/135/134
f 104/133/136 80/134/135 81/132/137 105/131/138
f 81/132/137 82/130/139 106/129/140 105/131/138
f 106/129/140 82/130/139 83/128/141 107/127/142
f 107/127/142 83/128/141 84/126/143 108/125/144
f 84/126/143 73/148/122 97/147/121 108/125/144
s off
f 109/124/145 97/147/146 98/145/147 110/123/148
f 98/145/149 99/143/150 111/122/151 110/123/152
f 111/122/153 99/143/154 100/141/155 112/121/156
f 112/121/157 100/141/158 101/139/159 113/120/160
f 101/139/161 102/137/162 114/119/163 113/120/164
f 114/119/165 102/137/166 103/135/167 115/118/168
f 103/135/169 104/133/170 116/117/171 115/118/172
f 116/117/173 104/133/174 105/131/175 117/116/176
f 105/131/177 106/129/178 118/115/179 117/116/180
f 118/115/181 106/129/182 107/127/183 119/114/184
f 119/114/185 107/127/186 108/125/187 120/113/188
f 108/125/189 97/147/190 109/124/191 120/113/192
s 5
f 121/103/193 109/124/194 110/123/195 122/112/196
f 110/123/195 111/122/197 122/112/196
f 122/112/196 111/122/197 112/121/198 123/110/199
f 123/110/199 112/121/198 113/120/200 124/108/201
f 113/120/200 114/119/202 124/108/201
f 124/108/201 114/119/202 115/118/203 125/107/204
f 115/118/203 116/117/205 125/107/204
f 125/107/204 116/117/205 117/116/206 126/105/207
f 117/116/206 118/115/208 126/105/207
f 126/105/207 118/115/208 119/114/209 127/104/210
f 127/104/210 119/114/209 120/113/211 121/103/193
f 120/113/211 109/124/194 121/103/193
s 6
f 128/98/212 121/103/213 122/112/214
f 128/98/212 122/112/214 123/110/215
f 128/98/212 123/110/215 124/108/216
f 128/98/212 124/108/216 125/107/217
f 128/98/212 125/107/217 126/105/218
f 128/98/212 126/105/218 127/104/219
f 128/98/212 127/104/219 121/103/213
