# This file uses centimeters as units for non-parametric coordinates.

g default
v -0.282021 0.751059 -0.458157
v 0.282021 0.751059 -0.458157
v -0.396435 0.000000 -0.576214
v 0.396435 0.000000 -0.576214
v -0.594131 0.000000 0.350015
v -0.415910 0.000000 0.500000
v -0.422662 0.804291 0.047660
v -0.295876 0.804291 0.154358
v 0.594131 0.000000 0.350015
v 0.415910 0.000000 0.500000
v 0.422662 0.804291 0.047660
v 0.295876 0.804291 0.154358
v -0.396435 0.075177 -0.576214
v 0.396435 0.075177 -0.576214
v 0.594131 0.075177 0.334061
v 0.415910 0.075177 0.484046
v -0.415910 0.075177 0.484046
v -0.594131 0.075177 0.334061
v 0.415910 0.070259 1.164472
v -0.415910 0.070259 1.164472
v -0.415910 -0.004918 1.180426
v 0.415910 -0.004918 1.180426
v -0.594131 -0.102193 1.030441
v -0.594131 -0.027016 1.014487
v 0.594131 -0.102193 1.030441
v 0.594131 -0.027016 1.014487
v -0.594131 0.000000 -0.090083
v 0.594131 0.000000 -0.090083
v 0.594131 0.075177 -0.097776
v 0.422662 0.839181 -0.152728
v -0.422662 0.839181 -0.152728
v -0.594131 0.075177 -0.097777
v -0.363136 0.443587 -0.541855
v 0.363136 0.443587 -0.541855
v 0.544227 0.501557 -0.134650
v 0.524618 0.501557 0.220711
v 0.380975 0.501557 0.358097
v -0.380975 0.501557 0.358097
v -0.524618 0.501557 0.220711
v -0.544227 0.501557 -0.134650
v 0.009807 0.751059 -0.550803
v 0.014698 0.907127 -0.152728
v 0.014698 0.872237 0.047660
v 0.010289 0.829817 0.281469
v 0.013248 0.501557 0.419171
v 0.014463 0.075177 0.545119
v 0.014463 0.137014 1.164472
v 0.014463 0.061837 1.180426
v 0.014463 0.000000 0.500000
v 0.013786 0.000000 -0.668859
v 0.013786 0.075177 -0.668859
v 0.012628 0.443587 -0.634500
v 0.014463 0.000000 0.440000
v 0.534131 0.000000 -0.072787
v 0.534131 0.000000 0.322089
v 0.394023 0.000000 0.440000
v 0.013786 0.000000 -0.608859
v 0.357368 0.000000 -0.516214
v -0.534131 0.000000 -0.072787
v -0.394023 0.000000 0.440000
v -0.534131 0.000000 0.322089
v -0.357368 0.000000 -0.516214
v 0.014463 0.507361 0.266375
v 0.020660 0.507361 -0.143707
v 0.414131 0.507361 -0.091819
v 0.414131 0.507361 0.212613
v 0.350248 0.507361 0.266375
v 0.013786 0.507361 -0.542484
v 0.279236 0.507361 -0.449839
v -0.414131 0.507361 -0.091819
v -0.350248 0.507361 0.266375
v -0.414131 0.507361 0.212613
v -0.279236 0.507361 -0.449839
vt 0.437408 0.929782
vt 0.734741 0.626804
vt 0.695255 0.530049
vt 0.710951 0.530805
vt 0.746380 0.617618
vt 0.720979 0.481085
vt 0.731175 0.492312
vt 0.436359 0.985942
vt 0.368397 0.953429
vt 0.339327 0.926405
vt 0.006677 0.846976
vt 0.622386 0.141748
vt 0.439213 0.881977
vt 0.167714 0.858902
vt 0.700921 0.101507
vt 0.048893 0.103071
vt 0.740437 0.175413
vt 0.161468 0.953576
vt 0.668770 0.225541
vt 0.000998 0.942990
vt 0.342113 0.877719
vt 0.049347 0.196554
vt 0.031497 0.196641
vt 0.032088 0.321249
vt 0.049944 0.319472
vt 0.049658 0.422010
vt 0.647140 0.583524
vt 0.598909 0.666446
vt 0.031797 0.425749
vt 0.970035 0.063104
vt 0.985565 0.158481
vt 0.216107 0.719822
vt 0.175989 0.757523
vt 0.015703 0.744440
vt 0.932273 0.271546
vt 0.054781 0.699359
vt 0.914419 0.269754
vt 0.914216 0.165256
vt 0.809237 0.445066
vt 0.814620 0.458257
vt 0.932073 0.169009
vt 0.326534 0.978837
vt 0.443986 0.781940
vt 0.817087 0.244057
vt 0.874137 0.300601
vt 0.377016 0.801187
vt 0.297110 0.968275
vt 0.828839 0.395761
vt 0.750199 0.322837
vt 0.559444 0.169625
vt 0.628759 0.185793
vt 0.603781 0.320623
vt 0.546867 0.302897
vt 0.627959 0.896403
vt 0.435603 0.298518
vt 0.435707 0.163870
vt 0.622896 0.791318
vt 0.543211 0.885161
vt 0.514031 0.806326
vt 0.542340 0.933892
vt 0.511341 0.958635
vt 0.697621 0.760863
vt 0.461772 0.613427
vt 0.967316 0.158486
vt 0.195618 0.996757
vt 0.033036 0.993319
vt 0.914258 0.701977
vt 0.989667 0.897958
vt 0.821821 0.715941
vt 0.262144 0.690709
vt 0.727884 0.859237
vt 0.171463 0.543245
vt 0.112008 0.470751
vt 0.224205 0.412350
vt 0.270043 0.468239
vt 0.093492 0.431412
vt 0.215763 0.394413
vt 0.074496 0.343317
vt 0.198957 0.316478
vt 0.250344 0.624632
vt 0.893134 0.885095
vt 0.916309 0.793750
vt 0.988100 0.802214
vt 0.999002 0.818773
vt 0.798904 0.875630
vt 0.828131 0.815608
vt 0.893282 0.989070
vt 0.979527 0.983963
vt 0.965073 0.997534
vt 0.812605 0.947306
vt 0.839402 0.804046
vt 0.796812 0.725718
vt 0.804092 0.129620
vt 0.873113 0.180522
vt 0.903794 0.219627
vt 0.234028 0.186755
vt 0.303272 0.170203
vt 0.316550 0.303391
vt 0.626297 0.705529
vt 0.669363 0.681116
vt 0.751186 0.660742
vt 0.581194 0.049803
vt 0.741462 0.000948
vt 0.769068 0.069017
vt 0.664311 0.018066
vt 0.497831 0.524211
vt 0.576365 0.766624
vt 0.596403 0.817866
vt 0.441940 0.767481
vt 0.426010 0.709997
vt 0.696451 0.559114
vt 0.548300 0.492414
vt 0.951787 0.063109
vt 0.936648 0.318719
vt 0.951836 0.260735
vt 0.970084 0.260730
vt 0.954897 0.318714
vt 0.936571 0.005133
vt 0.954820 0.005128
vt 0.293321 0.688411
vt 0.913723 0.394361
vt 0.931573 0.394463
vt 0.048408 0.003213
vt 0.031043 0.103158
vt 0.030558 0.003300
vt 0.825026 0.699245
vt 0.908875 0.688786
vt 0.903853 0.406452
vt 0.904425 0.421607
vt 0.956492 0.423436
vt 0.945807 0.434958
vt 0.995978 0.520190
vt 0.981236 0.521771
vt 0.996132 0.644803
vt 0.982160 0.635117
vt 0.333022 0.533701
vt 0.054051 0.248509
vt 0.180703 0.231830
vt 0.054708 0.205035
vt 0.181003 0.212008
vt 0.079004 0.114482
vt 0.199733 0.142195
vt 0.117333 0.007819
vt 0.230138 0.056595
vt 0.395676 0.722537
vt 0.318849 0.674088
vt 0.386737 0.573336
vt 0.448797 0.611712
vt 0.259771 0.321495
vt 0.578401 0.429034
vt 0.530510 0.413803
vt 0.435033 0.406320
vt 0.333807 0.414156
vt 0.286030 0.429742
vt 0.214732 0.957041
vt 0.183555 0.959339
vt 0.293321 0.688411
vt 0.322744 0.698973
vn 0.253297 0.200824 0.946314
vn -0.000125 0.207594 0.978215
vn 0.000103 0.207594 0.978215
vn 0.342040 0.195073 0.919214
vn 0.000000 0.000000 -1.000000
vn 0.000303 0.085456 -0.996342
vn 0.703240 0.086922 -0.705619
vn 0.599293 -0.524308 -0.604938
vn 0.000000 -0.761819 -0.647790
vn 0.000000 -1.000000 -0.000000
vn -0.751593 -0.639190 0.162924
vn -0.643202 -0.752961 -0.139072
vn -0.116177 -0.788522 -0.603933
vn 0.801610 -0.575388 -0.162329
vn 0.975673 0.099205 -0.195502
vn 0.938954 0.186562 0.289067
vn 1.000000 0.000000 0.000000
vn -0.975673 0.099205 -0.195502
vn -0.980055 -0.010157 -0.198465
vn -1.000000 -0.000002 0.000000
vn -0.938954 0.186562 0.289067
vn 0.000767 0.984438 0.175730
vn -0.004046 0.983289 0.182009
vn 0.164337 0.969082 0.184046
vn 0.162496 0.971463 0.172787
vn -0.683567 0.151520 0.713987
vn -0.327428 0.196151 0.924292
vn -0.242045 0.201421 0.949128
vn -0.683567 0.151520 0.713987
vn 0.683568 0.151520 0.713987
vn 0.683568 0.151520 0.713987
vn 0.000281 0.183652 -0.982991
vn 0.685239 0.188035 -0.703626
vn 0.953487 0.203482 -0.222392
vn 0.905545 0.296614 0.303329
vn 0.328984 0.293491 0.897570
vn 0.354848 0.382409 0.853139
vn 0.000352 0.375284 0.926910
vn 0.000125 0.288814 0.957385
vn -0.639498 0.279321 0.716256
vn -0.340097 0.381582 0.859494
vn -0.905545 0.296614 0.303329
vn -0.953487 0.203482 -0.222392
vn 0.187015 0.982322 0.008288
vn 0.000223 0.999043 -0.043750
vn -0.000027 0.999043 -0.043750
vn 0.134924 0.990710 -0.017001
vn 0.000025 -0.999126 0.041790
vn -0.000000 -0.999259 0.038490
vn -0.169956 -0.985439 -0.004904
vn -0.135541 -0.990636 0.016397
vn 0.235243 -0.970402 -0.054595
vn 0.162966 -0.986627 -0.003069
vn 0.128357 -0.991569 0.017764
vn 0.320287 -0.944400 -0.074333
vn -0.179411 0.983756 0.006056
vn -0.320285 0.944400 0.074333
vn -0.320285 0.944400 0.074333
vn -0.127838 0.991624 -0.018427
vn -1.000000 0.000000 0.000000
vn -1.000000 0.000000 0.000000
vn -1.000000 0.000000 0.000000
vn -1.000000 0.000000 0.000000
vn -0.235243 -0.970402 -0.054595
vn -0.320287 -0.944400 -0.074333
vn 1.000000 0.000000 0.000000
vn 1.000000 0.000000 0.000000
vn 1.000000 0.000000 0.000000
vn 1.000000 0.000000 0.000000
vn 0.320288 0.944399 0.074333
vn 0.320288 0.944399 0.074333
vn 0.000480 0.989427 -0.145028
vn 0.155824 0.981674 -0.109703
vn -0.000262 -0.605381 0.795936
vn -0.603159 -0.559737 0.568237
vn -0.002235 0.935946 -0.352136
vn 0.140237 0.926027 -0.350439
vn -0.687311 0.087062 -0.721126
vn -0.669686 0.187961 -0.718465
vn -0.687070 -0.012090 -0.726491
vn -0.000971 0.296173 -0.955134
vn 0.653788 0.322474 -0.684523
vn 0.906456 0.332881 -0.259862
vn 0.864479 0.436521 0.249249
vn 0.374816 0.521182 0.766735
vn -0.000835 0.502727 0.864445
vn -0.359796 0.519680 0.774906
vn -0.864479 0.436521 0.249249
vn -0.906456 0.332881 -0.259862
vn -0.638972 0.322095 -0.698548
vn -0.145339 0.983466 -0.108031
vn -0.130673 0.928526 -0.347510
vn -0.151541 0.973535 0.171072
vn -0.152336 0.972548 0.175909
vn -0.140427 0.285585 0.948009
vn 0.730115 -0.664743 0.158268
vn 0.108286 -0.794127 -0.598027
vn 0.619325 -0.773631 -0.133910
vn 0.577243 -0.577335 0.577473
vn 0.000000 -1.000000 0.000000
vn 0.000000 -1.000000 0.000000
vn 0.000000 -1.000000 0.000000
vn 0.000000 -1.000000 0.000000
vn 0.000000 -1.000000 0.000000
vn 0.000000 -1.000000 0.000000
vn 0.000000 -1.000000 0.000000
vn 0.000000 -1.000000 0.000000
vn 0.000000 -1.000000 0.000000
vn 0.000000 -1.000000 0.000000
vn 0.000000 -1.000000 0.000000
vn 0.000000 -1.000000 0.000000
vn 0.000000 -1.000000 0.000000
vn -0.957988 -0.215318 0.189465
vn -0.932061 -0.272072 -0.239246
vn -0.167432 -0.332107 -0.928263
vn -0.000000 -0.323777 -0.946133
vn 0.000220 -0.151467 0.988462
vn -0.722632 -0.192986 0.663747
vn 0.157731 -0.331879 -0.930042
vn 0.932061 -0.272072 -0.239246
vn 0.957988 -0.215318 0.189465
vn 0.703649 -0.192850 0.683876
s 1
g pCube1
f 19/30/1 47/31/2 48/64/3 22/113/4
s 2
f 50/124/5 51/16/6 14/22/7 4/23/8
s 3
f 63/68/9 64/81/10 65/82/11 66/83/12 67/84/13
s 2
f 28/24/14 29/25/15 15/26/16 9/29/17
f 32/35/18 27/37/19 5/38/20 18/41/21
s 5
f 43/1/22 44/8/23 12/9/24 11/10/25
s 1
f 23/114/26 21/115/27 20/116/28 24/117/29
f 22/113/4 25/118/30 26/119/31 19/30/1
s 2
f 51/12/6 52/15/32 34/17/33 14/19/7
f 35/44/34 36/45/35 15/48/16 29/49/15
f 16/50/36 15/51/16 36/52/35 37/53/37
f 37/53/37 45/55/38 46/56/39 16/50/36
f 18/96/21 17/97/40 38/98/41 39/149/42
f 39/57/42 40/62/43 32/71/18 18/54/21
s 7
f 16/27/44 46/28/45 47/63/46 19/106/47
s 2
f 48/11/48 49/14/49 10/18/50 22/20/51
f 5/32/52 6/33/53 21/34/54 23/36/55
s 7
f 17/107/56 18/108/57 24/109/58 20/110/59
s off
f 18/42/60 5/47/61 23/157/62 24/158/63
s 2
f 10/18/50 9/65/64 25/66/65 22/20/51
s off
f 9/70/66 15/120/67 26/155/68 25/156/69
s 7
f 15/111/70 16/27/44 19/106/47 26/112/71
s 5
f 42/13/72 43/1/22 11/10/25 30/21/73
s 3
f 64/81/10 68/85/74 69/86/75 65/82/11
s 2
f 14/22/7 29/25/15 28/24/14 4/23/8
f 34/17/33 35/44/34 29/49/15 14/19/7
s 5
f 41/43/76 42/13/72 30/21/73 2/46/77
s 2
f 13/91/78 32/71/18 40/62/43 33/92/79
f 3/121/80 27/37/19 32/35/18 13/122/78
f 52/15/32 41/104/81 2/93/82 34/17/33
f 30/94/83 35/44/34 34/17/33 2/93/82
f 11/95/84 36/45/35 35/44/34 30/94/83
f 37/53/37 36/52/35 11/150/84 12/151/85
f 44/152/86 45/55/38 37/53/37 12/151/85
f 39/149/42 38/98/41 8/153/87 7/154/88
f 31/100/89 40/62/43 39/57/42 7/99/88
f 33/92/79 40/62/43 31/100/89 1/101/90
s 5
f 31/58/91 42/13/72 41/43/76 1/59/92
f 7/60/93 43/1/22 42/13/72 31/58/91
f 7/60/93 8/61/94 44/8/23 43/1/22
s 2
f 8/153/87 38/98/41 45/55/38 44/152/86
f 46/56/39 45/55/38 38/98/41 17/97/95
s 7
f 47/63/46 46/28/45 17/107/56 20/110/59
s 1
f 48/64/3 47/31/2 20/116/28 21/115/27
s 2
f 6/33/53 49/14/49 48/11/48 21/34/54
s 3
f 70/87/96 64/81/10 63/68/9 71/88/97 72/89/98
f 73/90/99 68/85/74 64/81/10 70/87/96
s 2
f 13/123/78 51/16/6 50/124/5 3/125/80
f 33/105/79 52/15/32 51/12/6 13/102/78
f 1/103/90 41/104/81 52/15/32 33/105/79
f 28/2/14 9/3/64 55/4/100 54/5/101
f 9/3/64 10/6/50 56/7/102 55/4/100
f 10/6/50 49/39/49 53/40/103 56/7/102
f 50/67/104 4/69/8 58/126/105 57/127/106
f 4/69/8 28/2/14 54/5/101 58/126/105
f 49/39/49 6/128/53 60/129/107 53/40/103
f 6/128/53 5/130/52 61/131/108 60/129/107
f 5/130/52 27/132/109 59/133/110 61/131/108
f 3/134/111 50/67/104 57/127/106 62/135/112
f 27/132/109 3/134/111 62/135/112 59/133/110
s 3
f 54/72/113 55/73/114 66/74/12 65/75/11
f 55/73/114 56/76/115 67/77/13 66/74/12
f 56/76/115 53/78/116 63/79/9 67/77/13
f 57/146/117 58/80/118 69/136/75 68/147/74
f 58/80/118 54/72/113 65/75/11 69/136/75
f 53/78/116 60/137/119 71/138/97 63/79/9
f 60/137/119 61/139/120 72/140/98 71/138/97
f 61/139/120 59/141/121 70/142/96 72/140/98
f 62/145/122 57/146/117 68/147/74 73/148/99
f 59/141/121 62/143/122 73/144/99 70/142/96
