# Blender v2.77 (sub 0) OBJ File: 'CeilingFan.blend'
# www.blender.org
g Cube
v -0.117869 0.042882 0.117869
v -0.056297 0.821386 0.056297
v -0.117869 0.042882 -0.117869
v -0.056297 0.821386 -0.056297
v 0.117869 0.042882 0.117869
v 0.056297 0.821386 0.056297
v 0.117869 0.042882 -0.117869
v 0.056297 0.821386 -0.056297
v 0.000000 -0.085729 -0.605741
v -0.428324 -0.085729 -0.428324
v -0.605741 -0.085729 0.000000
v -0.428324 -0.085729 0.428324
v 0.000000 -0.085729 0.605741
v 0.428324 -0.085729 0.428323
v 0.605741 -0.085729 -0.000000
v 0.428324 -0.085729 -0.428323
v 0.000000 0.032659 -0.605741
v -0.428324 0.032659 -0.428324
v -0.605741 0.032659 0.000000
v -0.428324 0.032659 0.428324
v 0.000000 0.032659 0.605741
v 0.428324 0.032659 0.428323
v 0.605741 0.032659 -0.000000
v 0.428324 0.032659 -0.428323
v 0.664627 -0.038824 -0.019177
v 0.664627 0.038824 -0.019177
v 0.536879 -0.038824 -0.387550
v 0.536879 0.038824 -0.387550
v 2.398492 -0.026378 -0.677912
v 2.398492 0.026378 -0.677912
v 2.311695 -0.026378 -0.928198
v 2.311695 0.026378 -0.928198
v -0.348921 -0.038824 -0.565996
v -0.348921 0.038824 -0.565996
v -0.604067 -0.038824 -0.271176
v -0.604067 0.038824 -0.271176
v -1.786335 -0.026378 -1.738199
v -1.786335 0.026378 -1.738199
v -1.959690 -0.026378 -1.537888
v -1.959690 0.026378 -1.537888
v -0.315706 -0.038824 0.585173
v -0.315706 0.038824 0.585173
v 0.067188 -0.038824 0.658725
v 0.067188 0.038824 0.658725
v -0.612158 -0.026378 2.416111
v -0.612158 0.026378 2.416111
v -0.352006 -0.026378 2.466085
v -0.352006 0.026378 2.466085
vn -0.9969 0.0788 0.0000
vn 0.0000 0.0788 -0.9969
vn 0.9969 0.0788 0.0000
vn 0.0000 0.0788 0.9969
vn 0.0000 -1.0000 0.0000
vn 0.0000 1.0000 0.0000
vn 0.3827 0.0000 -0.9239
vn 0.9239 0.0000 0.3827
vn -0.9239 0.0000 0.3827
vn -0.3827 0.0000 -0.9239
vn 0.9239 0.0000 -0.3827
vn 0.3827 0.0000 0.9239
vn -0.3827 0.0000 0.9239
vn -0.9239 0.0000 -0.3827
vn -0.9448 0.0000 0.3276
vn -0.2914 0.0000 -0.9566
vn 0.9448 0.0000 -0.3276
vn 0.3552 0.0000 0.9348
vn 0.0063 -1.0000 -0.0022
vn 0.0063 1.0000 -0.0022
vn 0.7562 0.0000 0.6544
vn -0.6827 0.0000 0.7307
vn -0.7562 0.0000 -0.6544
vn 0.6320 0.0000 -0.7750
vn -0.0051 -1.0000 -0.0044
vn -0.0051 1.0000 -0.0044
vn 0.1886 0.0000 -0.9820
vn 0.9741 0.0000 0.2259
vn -0.1886 0.0000 0.9820
vn -0.9871 0.0000 -0.1598
vn -0.0013 -1.0000 0.0066
vn -0.0013 1.0000 0.0066
s off
f 2//1 4//1 3//1 1//1
f 4//2 8//2 7//2 3//2
f 8//3 6//3 5//3 7//3
f 6//4 2//4 1//4 5//4
f 1//5 3//5 7//5 5//5
f 6//6 8//6 4//6 2//6
f 13//7 12//7 20//7 21//7
f 11//8 10//8 18//8 19//8
f 16//9 15//9 23//9 24//9
f 14//10 13//10 21//10 22//10
f 12//11 11//11 19//11 20//11
f 10//12 9//12 17//12 18//12
f 9//13 16//13 24//13 17//13
f 15//14 14//14 22//14 23//14
f 26//15 28//15 27//15 25//15
f 28//16 32//16 31//16 27//16
f 32//17 30//17 29//17 31//17
f 30//18 26//18 25//18 29//18
f 25//19 27//19 31//19 29//19
f 30//20 32//20 28//20 26//20
f 34//21 36//21 35//21 33//21
f 36//22 40//22 39//22 35//22
f 40//23 38//23 37//23 39//23
f 38//24 34//24 33//24 37//24
f 33//25 35//25 39//25 37//25
f 38//26 40//26 36//26 34//26
f 42//27 44//27 43//27 41//27
f 44//28 48//28 47//28 43//28
f 48//29 46//29 45//29 47//29
f 46//30 42//30 41//30 45//30
f 41//31 43//31 47//31 45//31
f 46//32 48//32 44//32 42//32
f 17//5 24//5 19//5 18//5
f 24//5 23//5 20//5 19//5
f 23//5 22//5 21//5 20//5
f 13//6 14//6 11//6 12//6
f 14//6 15//6 10//6 11//6
f 15//6 16//6 9//6 10//6
