# Blender v2.77 (sub 0) OBJ File: 'desk.blend'
# www.blender.org
g Desk
v -4.123259 0.000000 -0.000000
v -4.065770 0.000000 0.583699
v -3.895511 0.000000 1.144966
v -3.619026 0.000000 1.662234
v -3.246939 0.000000 2.115623
v -2.793550 0.000000 2.487709
v -2.276283 0.000000 2.764194
v -1.715015 0.000000 2.934453
v -1.131316 0.000000 2.991942
v 1.080404 0.000000 2.991942
v -0.133433 0.000000 2.991942
v -4.405694 1.000797 -0.000000
v -4.344267 1.000797 0.623681
v -4.162346 1.000797 1.223394
v -3.866921 1.000797 1.776094
v -3.469348 1.000797 2.260538
v -2.984903 1.000797 2.658112
v -2.432204 1.000797 2.953536
v -1.832490 1.000797 3.135457
v -1.208808 1.000797 3.196884
v 1.080431 1.000797 3.196884
v -0.161991 1.000797 3.196884
v -4.481315 1.080600 -0.000000
v -4.418834 1.080600 0.634386
v -4.233790 1.080600 1.244393
v -3.933295 1.080600 1.806579
v -3.528897 1.080600 2.299339
v -3.036137 1.080600 2.703737
v -2.473951 1.080600 3.004232
v -1.863943 1.080600 3.189276
v -1.229557 1.080600 3.251757
v 1.080438 1.080600 3.251757
v -0.169638 1.080600 3.251757
v -4.481315 1.148664 -0.000000
v -4.418834 1.148664 0.634386
v -4.233790 1.148664 1.244393
v -3.933295 1.148664 1.806579
v -3.528897 1.148664 2.299339
v -3.036137 1.148664 2.703737
v -2.473951 1.148664 3.004232
v -1.863943 1.148664 3.189276
v -1.229557 1.148664 3.251757
v 1.080438 1.148664 3.251757
v -0.169638 1.148664 3.251757
v -4.396754 1.194524 -0.000000
v -4.335452 1.194524 0.622415
v -4.153900 1.194524 1.220912
v -3.859075 1.194524 1.772490
v -3.462309 1.194524 2.255952
v -2.978847 1.194524 2.652719
v -2.427269 1.194524 2.947543
v -1.828772 1.194524 3.129095
v -1.206356 1.194524 3.190398
v 1.080430 1.194524 3.190398
v -0.161087 1.194524 3.190398
v -4.005521 1.194524 -0.000000
v -3.949673 1.194524 0.567031
v -3.784276 1.194524 1.112272
v -3.515686 1.194524 1.614769
v -3.154224 1.194524 2.055212
v -2.713782 1.194524 2.416673
v -2.211284 1.194524 2.685264
v -1.666043 1.194524 2.850661
v -1.099011 1.194524 2.906508
v 1.080392 1.194524 2.906508
v -0.121527 1.194524 2.906508
v -3.944466 1.173234 -0.000000
v -3.889470 1.173234 0.558388
v -3.726594 1.173234 1.095318
v -3.462098 1.173234 1.590156
v -3.106146 1.173234 2.023885
v -2.672417 1.173234 2.379837
v -2.177579 1.173234 2.644334
v -1.640648 1.173234 2.807209
v -1.082259 1.173234 2.862206
v 1.080387 1.173234 2.862206
v -0.115354 1.173234 2.862206
v -3.909625 1.043473 -0.000000
v -3.855114 1.043473 0.553456
v -3.693677 1.043473 1.085643
v -3.431517 1.043473 1.576110
v -3.078709 1.043473 2.006008
v -2.648811 1.043473 2.358816
v -2.158344 1.043473 2.620976
v -1.626156 1.043473 2.782413
v -1.072700 1.043473 2.836924
v 1.080383 1.043473 2.836924
v -0.111831 1.043473 2.836924
v -3.252642 1.043473 -0.000000
v -3.207292 1.043473 0.460452
v -3.072983 1.043473 0.903209
v -2.854877 1.043473 1.311257
v -2.561355 1.043473 1.668913
v -2.203699 1.043473 1.962435
v -1.795651 1.043473 2.180541
v -1.352893 1.043473 2.314850
v -0.892441 1.043473 2.360201
v 1.080320 1.043473 2.360201
v -0.045399 1.043473 2.360201
v -3.196662 0.000000 -0.000000
v -3.152092 0.000000 0.452527
v -3.020094 0.000000 0.887664
v -2.805742 0.000000 1.288689
v -2.517272 0.000000 1.640190
v -2.165771 0.000000 1.928660
v -1.764746 0.000000 2.143013
v -1.329609 0.000000 2.275010
v -0.877081 0.000000 2.319580
v 1.080315 0.000000 2.319580
v -0.039739 0.000000 2.319580
v -3.889470 1.070605 0.558388
v -3.944466 1.070605 -0.000000
v -1.082259 1.070605 2.862206
v -1.640648 1.070605 2.807209
v -2.672417 1.070605 2.379837
v -3.106146 1.070605 2.023885
v -3.726594 1.070605 1.095318
v -0.115354 1.070605 2.862206
v -2.177579 1.070605 2.644334
v -3.462098 1.070605 1.590156
v 1.080387 1.070605 2.862206
v 1.080359 0.000000 2.655761
v -0.086586 0.000000 2.655761
v -1.004198 0.000000 2.655761
v -1.522312 0.000000 2.604731
v -2.020514 0.000000 2.453604
v -2.479661 0.000000 2.208184
v -2.882106 0.000000 1.877906
v -3.212384 0.000000 1.475461
v -3.457803 0.000000 1.016315
v -3.608931 0.000000 0.518113
v -3.659960 0.000000 -0.000000
vt 0.4331 0.0315
vt 0.4331 0.1349
vt 0.3458 0.1349
vt 0.3458 0.0315
vt 0.1677 0.0315
vt 0.1677 0.1349
vt 0.0803 0.1349
vt 0.0803 0.0315
vt 0.7928 0.0315
vt 0.7928 0.1349
vt 0.6947 0.1349
vt 0.6947 0.0315
vt 0.5188 0.0315
vt 0.5188 0.1349
vt 0.2562 0.0315
vt 0.2562 0.1349
vt 0.8810 0.0315
vt 0.8810 0.1349
vt 0.6049 0.0315
vt 0.6049 0.1349
vt 0.9658 0.0315
vt 0.9658 0.1349
vt 0.4331 0.1518
vt 0.3458 0.1518
vt 0.1677 0.1518
vt 0.0803 0.1518
vt 0.7928 0.1518
vt 0.6947 0.1518
vt 0.5188 0.1518
vt 0.2562 0.1518
vt 0.8810 0.1518
vt 0.6049 0.1518
vt 0.9658 0.1518
vt 0.6947 0.1623
vt 0.6049 0.1623
vt 0.4331 0.1623
vt 0.3458 0.1623
vt 0.1677 0.1623
vt 0.0803 0.1623
vt 0.7928 0.1623
vt 0.5188 0.1623
vt 0.2562 0.1623
vt 0.8810 0.1623
vt 0.9658 0.1623
vt 0.3458 0.1765
vt 0.2562 0.1765
vt 0.9658 0.1765
vt 0.8810 0.1765
vt 0.6947 0.1765
vt 0.6049 0.1765
vt 0.4331 0.1765
vt 0.1677 0.1765
vt 0.0803 0.1765
vt 0.7928 0.1765
vt 0.5188 0.1765
vt 0.8810 0.2344
vt 0.7928 0.2344
vt 0.6049 0.2344
vt 0.5188 0.2344
vt 0.3458 0.2344
vt 0.2562 0.2344
vt 0.9658 0.2344
vt 0.6947 0.2344
vt 0.4331 0.2344
vt 0.1677 0.2344
vt 0.0803 0.2344
vt 0.5188 0.2439
vt 0.4331 0.2439
vt 0.2562 0.2439
vt 0.1677 0.2439
vt 0.8810 0.2439
vt 0.7928 0.2439
vt 0.6049 0.2439
vt 0.3458 0.2439
vt 0.9658 0.2439
vt 0.6947 0.2439
vt 0.0803 0.2439
vt 0.0803 0.2602
vt 0.1677 0.2602
vt 0.1677 0.2670
vt 0.0803 0.2670
vt 0.6947 0.2602
vt 0.7928 0.2602
vt 0.7928 0.2670
vt 0.6947 0.2670
vt 0.4331 0.2602
vt 0.5188 0.2602
vt 0.5188 0.2670
vt 0.4331 0.2670
vt 0.2562 0.2602
vt 0.2562 0.2670
vt 0.8810 0.2602
vt 0.8810 0.2670
vt 0.6049 0.2602
vt 0.6049 0.2670
vt 0.3458 0.2602
vt 0.3458 0.2670
vt 0.9658 0.2602
vt 0.9658 0.2670
vt 0.4331 0.3682
vt 0.3458 0.3682
vt 0.1677 0.3682
vt 0.0803 0.3682
vt 0.7928 0.3682
vt 0.6947 0.3682
vt 0.5188 0.3682
vt 0.2562 0.3682
vt 0.8810 0.3682
vt 0.6049 0.3682
vt 0.9658 0.3682
vt 0.7928 0.4753
vt 0.6947 0.4753
vt 0.5188 0.4753
vt 0.4331 0.4753
vt 0.2562 0.4753
vt 0.1677 0.4753
vt 0.8810 0.4753
vt 0.6049 0.4753
vt 0.3458 0.4753
vt 0.9658 0.4753
vt 0.8195 0.5600
vt 0.7514 0.6094
vt 0.7270 0.5576
vt 0.7864 0.5145
vt 0.6834 0.6587
vt 0.6676 0.6007
vt 0.6083 0.7027
vt 0.6020 0.6391
vt 0.5259 0.7312
vt 0.5301 0.6640
vt 0.4397 0.7431
vt 0.4547 0.6744
vt 0.3527 0.7379
vt 0.3788 0.6698
vt 0.2685 0.7158
vt 0.3052 0.6506
vt 0.1901 0.6778
vt 0.2367 0.6173
vt 0.1207 0.6252
vt 0.1761 0.5714
vt 0.0629 0.5600
vt 0.1256 0.5145
vt 0.8909 0.7054
vt 0.9456 0.6697
vt 0.9418 0.6770
vt 0.9037 0.7054
vt 0.8841 0.6963
vt 0.9353 0.6559
vt 0.8835 0.6801
vt 0.9360 0.6498
vt 0.0803 0.4753
vt 0.0653 0.6789
vt 0.0002 0.6055
vt 0.1435 0.7382
vt 0.2317 0.7811
vt 0.3267 0.8059
vt 0.4246 0.8117
vt 0.5218 0.7984
vt 0.6146 0.7663
vt 0.6992 0.7167
vt 0.7759 0.6611
vt 0.8525 0.6055
vt 0.8528 0.5818
vt 0.8978 0.5482
vt 0.9429 0.5145
vt 0.9998 0.6020
vt 0.8528 0.9065
vt 0.8528 0.8411
vt 0.8564 0.8308
vt 0.8605 0.9207
vt 0.8735 0.8308
vt 0.8719 0.9207
vt 0.8781 0.8250
vt 0.8852 0.9080
vt 0.8781 0.7151
vt 0.9823 0.7057
vt 0.9823 0.7832
vt 0.9823 0.8607
vn -0.4473 -0.7727 0.4504
vn -0.6218 -0.4722 0.6248
vn -0.7265 -0.4845 0.4873
vn -0.5239 -0.7756 0.3521
vn -0.6148 -0.7790 0.1229
vn -0.8499 -0.4988 0.1696
vn -0.5846 -0.3381 -0.7375
vn -0.5147 -0.6404 -0.5700
vn -0.0302 -0.7663 0.6418
vn -0.0435 -0.3986 0.9161
vn -0.1739 -0.4175 0.8919
vn -0.1237 -0.7604 0.6375
vn -0.3529 -0.7691 0.5328
vn -0.4921 -0.4566 0.7411
vn -0.5803 -0.7777 0.2416
vn -0.8032 -0.4934 0.3338
vn 0.0000 -0.7748 0.6322
vn 0.0000 -0.3914 0.9202
vn -0.2438 -0.7650 0.5961
vn -0.3411 -0.4383 0.8316
vn 0.5887 -0.6263 0.5110
vn 0.7548 -0.2568 0.6036
vn -0.6662 -0.3442 0.6616
vn -0.7795 -0.3522 0.5179
vn -0.9147 -0.3613 0.1811
vn -0.7471 -0.2906 -0.5978
vn -0.0492 -0.2982 0.9532
vn -0.1905 -0.3079 0.9321
vn -0.5269 -0.3340 0.7815
vn -0.8633 -0.3579 0.3558
vn 0.0000 -0.2966 0.9550
vn -0.3664 -0.3218 0.8730
vn 0.6461 -0.2264 0.7289
vn -0.1789 0.4526 0.8736
vn -0.3428 0.4649 0.8163
vn -0.6210 0.4835 0.6168
vn -0.7261 0.4899 0.4825
vn -0.8512 0.4971 0.1686
vn -0.7089 0.4071 -0.5759
vn -0.0464 0.4465 0.8936
vn -0.4919 0.4752 0.7295
vn -0.8036 0.4944 0.3312
vn 0.0000 0.4480 0.8940
vn 0.6189 0.3519 0.7023
vn -0.2237 0.9626 0.1525
vn -0.2441 0.9643 0.1029
vn 0.6425 0.7271 0.2416
vn 0.0000 0.9489 0.3154
vn -0.0562 0.9481 0.3128
vn -0.1111 0.9531 0.2815
vn -0.1949 0.9603 0.1997
vn -0.2562 0.9652 0.0518
vn -0.1986 0.7369 -0.6461
vn -0.0131 0.9471 0.3206
vn -0.1574 0.9571 0.2432
vn 0.0000 0.9750 -0.2221
vn 0.0122 0.9773 -0.2115
vn 0.0734 0.9828 -0.1695
vn 0.0997 0.9844 -0.1450
vn 0.1368 0.9865 -0.0897
vn 0.1480 0.9872 -0.0603
vn 0.6603 0.7322 -0.1669
vn 0.0414 0.9807 -0.1908
vn 0.1208 0.9856 -0.1181
vn 0.1546 0.9875 -0.0303
vn 0.1154 0.7268 -0.6770
vn 0.4503 0.5779 -0.6806
vn 0.5714 0.5849 -0.5756
vn 0.7427 0.5939 -0.3092
vn 0.7873 0.5961 -0.1574
vn 0.0000 0.5324 -0.8465
vn 0.0388 0.5424 -0.8392
vn 0.3105 0.5692 -0.7613
vn 0.6700 0.5902 -0.4503
vn 0.6046 0.4240 -0.6743
vn 0.1567 0.5587 -0.8144
vn 0.6254 0.4652 -0.6265
vn 0.4864 0.2308 -0.8427
vn 0.8868 0.4275 -0.1755
vn 0.3372 0.9389 -0.0681
vn 0.2066 0.5664 -0.7978
vn 0.1859 0.3757 -0.9079
vn 0.0482 0.3669 -0.9290
vn 0.0170 0.9139 -0.4055
vn 0.0725 0.9148 -0.3974
vn 0.6468 0.4113 -0.6422
vn 0.5121 0.4015 -0.7593
vn 0.2042 0.9271 -0.3142
vn 0.2542 0.9316 -0.2597
vn 0.8372 0.4243 -0.3450
vn 0.3207 0.9375 -0.1349
vn 0.0000 0.3663 -0.9305
vn 0.0000 0.9170 -0.3989
vn 0.3567 0.3896 -0.8491
vn 0.1433 0.9215 -0.3609
vn 0.7563 0.4189 -0.5024
vn 0.2930 0.9351 -0.1993
vn 0.7995 0.2200 -0.5589
vn 0.8088 0.5392 -0.2347
vn 0.4709 0.7464 -0.4703
vn 0.5530 0.7470 -0.3691
vn 0.6513 0.7477 -0.1294
vn 0.5289 0.5958 -0.6044
vn 0.0337 0.7319 -0.6805
vn 0.1310 0.7439 -0.6553
vn 0.3706 0.7457 -0.5537
vn 0.6138 0.7474 -0.2540
vn 0.0000 0.7207 -0.6932
vn 0.2559 0.7448 -0.6162
vn 0.5794 0.5874 -0.5650
vn 0.0345 -0.7044 -0.7089
vn 0.1357 -0.7154 -0.6854
vn 0.3887 -0.7136 -0.5828
vn 0.4956 -0.7128 -0.4962
vn 0.6489 -0.7117 -0.2691
vn 0.6893 -0.7114 -0.1372
vn 0.0000 -0.6932 -0.7207
vn 0.2672 -0.7145 -0.6466
vn 0.5835 -0.7121 -0.3903
vn 0.5753 -0.5670 -0.5895
vn 0.7071 -0.7071 -0.0001
vn 0.0000 -1.0000 0.0000
vn 0.0000 -0.7071 -0.7071
vn 0.5623 -0.5690 -0.6001
s 1
f 5/1/1 16/2/2 15/3/3 4/4/4
f 2/5/5 13/6/6 12/7/7 1/8/8
f 9/9/9 20/10/10 19/11/11 8/12/12
f 6/13/13 17/14/14 16/2/2 5/1/1
f 3/15/15 14/16/16 13/6/6 2/5/5
f 11/17/17 22/18/18 20/10/10 9/9/9
f 7/19/19 18/20/20 17/14/14 6/13/13
f 4/4/4 15/3/3 14/16/16 3/15/15
f 10/21/21 21/22/22 22/18/18 11/17/17
f 8/12/12 19/11/11 18/20/20 7/19/19
f 15/3/3 16/2/2 27/23/23 26/24/24
f 12/7/7 13/6/6 24/25/25 23/26/26
f 19/11/11 20/10/10 31/27/27 30/28/28
f 16/2/2 17/14/14 28/29/29 27/23/23
f 13/6/6 14/16/16 25/30/30 24/25/25
f 20/10/10 22/18/18 33/31/31 31/27/27
f 17/14/14 18/20/20 29/32/32 28/29/29
f 14/16/16 15/3/3 26/24/24 25/30/30
f 22/18/18 21/22/22 32/33/33 33/31/31
f 18/20/20 19/11/11 30/28/28 29/32/32
f 29/32/32 30/28/28 41/34/34 40/35/35
f 26/24/24 27/23/23 38/36/36 37/37/37
f 23/26/26 24/25/25 35/38/38 34/39/39
f 30/28/28 31/27/27 42/40/40 41/34/34
f 27/23/23 28/29/29 39/41/41 38/36/36
f 24/25/25 25/30/30 36/42/42 35/38/38
f 31/27/27 33/31/31 44/43/43 42/40/40
f 28/29/29 29/32/32 40/35/35 39/41/41
f 25/30/30 26/24/24 37/37/37 36/42/42
f 33/31/31 32/33/33 43/44/44 44/43/43
f 36/42/42 37/37/37 48/45/45 47/46/46
f 44/43/43 43/44/44 54/47/47 55/48/48
f 40/35/35 41/34/34 52/49/49 51/50/50
f 37/37/37 38/36/36 49/51/51 48/45/45
f 34/39/39 35/38/38 46/52/52 45/53/53
f 41/34/34 42/40/40 53/54/54 52/49/49
f 38/36/36 39/41/41 50/55/55 49/51/51
f 35/38/38 36/42/42 47/46/46 46/52/52
f 42/40/40 44/43/43 55/48/48 53/54/54
f 39/41/41 40/35/35 51/50/50 50/55/55
f 53/54/54 55/48/48 66/56/56 64/57/57
f 50/55/55 51/50/50 62/58/58 61/59/59
f 47/46/46 48/45/45 59/60/60 58/61/61
f 55/48/48 54/47/47 65/62/62 66/56/56
f 51/50/50 52/49/49 63/63/63 62/58/58
f 48/45/45 49/51/51 60/64/64 59/60/60
f 45/53/53 46/52/52 57/65/65 56/66/66
f 52/49/49 53/54/54 64/57/57 63/63/63
f 49/51/51 50/55/55 61/59/59 60/64/64
f 46/52/52 47/46/46 58/61/61 57/65/65
f 60/64/64 61/59/59 72/67/67 71/68/68
f 57/65/65 58/61/61 69/69/69 68/70/70
f 64/57/57 66/56/56 77/71/71 75/72/72
f 61/59/59 62/58/58 73/73/73 72/67/67
f 58/61/61 59/60/60 70/74/74 69/69/69
f 66/56/56 65/62/62 76/75/75 77/71/71
f 62/58/58 63/63/63 74/76/76 73/73/73
f 59/60/60 60/64/64 71/68/68 70/74/74
f 56/66/66 57/65/65 68/70/70 67/77/77
f 63/63/63 64/57/57 75/72/72 74/76/76
f 112/78/78 111/79/79 79/80/80 78/81/81
f 114/82/82 113/83/83 86/84/84 85/85/85
f 116/86/86 115/87/87 83/88/88 82/89/89
f 111/79/79 117/90/90 80/91/91 79/80/80
f 113/83/83 118/92/92 88/93/93 86/84/84
f 115/87/87 119/94/94 84/95/95 83/88/88
f 117/90/90 120/96/96 81/97/97 80/91/91
f 118/92/92 121/98/98 87/99/99 88/93/93
f 119/94/94 114/82/82 85/85/85 84/95/95
f 120/96/96 116/86/86 82/89/89 81/97/97
f 81/97/97 82/89/89 93/100/100 92/101/101
f 78/81/81 79/80/80 90/102/102 89/103/103
f 85/85/85 86/84/84 97/104/104 96/105/105
f 82/89/89 83/88/88 94/106/106 93/100/100
f 79/80/80 80/91/91 91/107/107 90/102/102
f 86/84/84 88/93/93 99/108/108 97/104/104
f 83/88/88 84/95/95 95/109/109 94/106/106
f 80/91/91 81/97/97 92/101/101 91/107/107
f 88/93/93 87/99/99 98/110/110 99/108/108
f 84/95/95 85/85/85 96/105/105 95/109/109
f 97/104/104 108/111/111 107/112/112 96/105/105
f 94/106/106 105/113/113 104/114/114 93/100/100
f 91/107/107 102/115/115 101/116/116 90/102/102
f 99/108/108 110/117/117 108/111/111 97/104/104
f 95/109/109 106/118/118 105/113/113 94/106/106
f 92/101/101 103/119/119 102/115/115 91/107/107
f 98/110/110 109/120/120 110/117/117 99/108/108
f 96/105/105 107/112/112 106/118/118 95/109/109
f 93/100/100 104/114/114 103/119/119 92/101/101
f 122/121/121 123/122/122 110/123/117 109/124/120
f 123/122/122 124/125/122 108/126/111 110/123/117
f 124/125/122 125/127/122 107/128/112 108/126/111
f 125/127/122 126/129/122 106/130/118 107/128/112
f 126/129/122 127/131/122 105/132/113 106/130/118
f 127/131/122 128/133/122 104/134/114 105/132/113
f 128/133/122 129/135/122 103/136/119 104/134/114
f 129/135/122 130/137/122 102/138/115 103/136/119
f 130/137/122 131/139/122 101/140/116 102/138/115
f 131/139/122 132/141/123 100/142/124 101/140/116
f 43/143/44 76/144/75 65/145/62 54/146/47
f 70/74/74 71/68/68 116/86/86 120/96/96
f 73/73/73 74/76/76 114/82/82 119/94/94
f 77/71/71 76/75/75 121/98/98 118/92/92
f 69/69/69 70/74/74 120/96/96 117/90/90
f 72/67/67 73/73/73 119/94/94 115/87/87
f 75/72/72 77/71/71 118/92/92 113/83/83
f 68/70/70 69/69/69 117/90/90 111/79/79
f 71/68/68 72/67/67 115/87/87 116/86/86
f 74/76/76 75/72/72 113/83/83 114/82/82
f 67/77/77 68/70/70 111/79/79 112/78/78
f 32/147/33 121/148/98 76/144/75 43/143/44
f 21/149/22 87/150/99 121/148/98 32/147/33
f 90/102/102 101/116/116 100/151/124 89/103/103
f 2/152/5 1/153/8 132/141/123 131/139/122
f 3/154/15 2/152/5 131/139/122 130/137/122
f 4/155/4 3/154/15 130/137/122 129/135/122
f 5/156/1 4/155/4 129/135/122 128/133/122
f 6/157/13 5/156/1 128/133/122 127/131/122
f 7/158/19 6/157/13 127/131/122 126/129/122
f 8/159/12 7/158/19 126/129/122 125/127/122
f 9/160/9 8/159/12 125/127/122 124/125/122
f 11/161/17 9/160/9 124/125/122 123/122/122
f 10/162/21 11/161/17 123/122/122 122/121/121
f 21/149/22 10/163/21 122/164/121 87/150/99
f 87/150/99 122/164/121 109/165/120 98/166/110
f 45/167/53 56/168/66 67/169/77 34/170/39
f 34/170/39 67/169/77 112/171/78 23/172/26
f 23/172/26 112/171/78 78/173/81 12/174/7
f 89/175/103 100/176/124 132/177/123 78/173/81
f 1/178/8 12/174/7 78/173/81 132/177/123
